<?xml version="1.0" encoding="UTF-8"?><svg id="Layer_2" xmlns="http://www.w3.org/2000/svg" viewBox="0 0 208.67 312.13"><g id="Layer_1-2"><path d="M10.48,255.16c6.98-13.53,15.86-25.46,26.63-35.8,10.76-10.33,24.01-21.17,39.73-32.52l14.84-10.48c16.3-11.35,29.25-20.95,38.85-28.81s17.6-16.66,24.01-26.41c6.4-9.75,9.6-20.44,9.6-32.09,0-16.88-5.46-30.19-16.37-39.94-10.91-9.75-25.25-14.62-43-14.62-19.79,0-35,5.53-45.62,16.59-10.63,11.06-15.93,25.91-15.93,44.53H3.49c-.87-18.91,2.98-35.58,11.57-49.98,8.58-14.41,20.8-25.61,36.67-33.61C67.59,4,85.85,0,106.52,0c19.21,0,36.23,3.64,51.08,10.91,14.84,7.28,26.41,17.54,34.71,30.78,8.29,13.25,12.44,28.16,12.44,44.75s-4.37,32.82-13.1,46.93c-8.73,14.12-20.95,27.58-36.67,40.38-6.98,5.53-20.08,15.14-39.29,28.81-15.72,11.06-27.94,20.08-36.67,27.07s-16.37,14.7-22.92,23.14c-6.55,8.45-10.55,17.32-12.01,26.63h164.58v32.74H0v-11.35c0-16.88,3.49-32.09,10.48-45.62Z"/></g></svg>