<?xml version="1.0" encoding="UTF-8"?>
<svg id="Layer_2" data-name="Layer 2" xmlns="http://www.w3.org/2000/svg" viewBox="0 0 1687.53 569.5">
  <defs>
    <style>
      .cls-1 {
        fill: #314468;
      }
    </style>
  </defs>
  <g id="Layer_1-2" data-name="Layer 1">
    <path class="cls-1" d="M582.9,196.5c9.2-4.29,8.9-10.2,8.74-12.5-.54-6.44-69.48,11.35-88.66,15.8-.54,0-4.75,2.38-5.29,2.61-37.53,14.44-76.36,25.25-115.96,32.29h0c-32.82,10.89-86.43,63.35-101.85,79.22-3.02,3.2-6.61,5.8-10.58,7.67-17.68,8.55-38.04,9.74-56.6,3.3l-10.05-4.75c-121.94-56.22-185.52-30.22-193.26-26.69-2.99,1.38-7.67,1.84-8.05,3.83-.38,1.99-1.3,3.07-1.3,4.37-.17.61.19,1.25.8,1.42.11.03.23.05.35.04,3.54,0,7.08-.29,10.58-.84,65.34-10.89,132.98,25.08,168.72,48.55,8.95,5.77,17.6,11.99,25.92,18.64h0c4.99,5.45,2.84,14.42,7.13,18.71,10.24,11.25,23.33,19.51,37.89,23.93,8.82,2.72,18.31,2.29,26.84-1.23.85-.39,1.53-1.07,1.92-1.92,35.84-70.48,97.19-124.64,171.56-151.47h0c21.94-7.44,42.92-17.46,62.5-29.83.54-.38,69.02-30.68,69.02-31.14"/>
    <path class="cls-1" d="M802.62,385.07c2.56-1.2,2.48-2.84,2.44-3.48-.15-1.8-19.36,3.16-24.71,4.4-.15,0-1.33.66-1.47.73-10.46,4.02-21.28,7.04-32.32,9h0c-9.15,3.04-24.09,17.65-28.38,22.08-.84.89-1.84,1.62-2.95,2.14-4.93,2.38-10.6,2.71-15.77.92l-2.8-1.33c-33.98-15.67-51.7-8.42-53.86-7.44-.83.38-2.14.51-2.24,1.07-.11.56-.36.85-.36,1.22-.05.17.05.35.22.39.03,0,.06.01.1.01.99,0,1.97-.08,2.95-.24,18.21-3.04,37.06,6.99,47.02,13.53,2.5,1.61,4.91,3.34,7.22,5.19h0c1.39,1.52.79,4.02,1.99,5.22,2.85,3.13,6.5,5.44,10.56,6.67,2.46.76,5.1.64,7.48-.34.24-.11.43-.3.53-.53,9.99-19.64,27.09-34.74,47.81-42.21h0c6.11-2.07,11.96-4.86,17.42-8.31.15-.11,19.24-8.55,19.24-8.68"/>
    <path class="cls-1" d="M553.6,488.02c2.66-1.24,2.57-2.94,2.52-3.61-.15-1.86-20.06,3.28-25.59,4.56-.15,0-1.37.69-1.53.75-10.83,4.17-22.04,7.29-33.47,9.32h0c-9.47,3.14-24.95,18.28-29.4,22.87-.87.92-1.91,1.67-3.05,2.21-5.1,2.47-10.98,2.81-16.34.95l-2.9-1.37c-35.2-16.23-53.55-8.72-55.78-7.7-.86.4-2.21.53-2.32,1.11-.11.58-.38.89-.38,1.26-.05.18.05.36.23.41.03,0,.07.01.1.01,1.02,0,2.04-.08,3.05-.24,18.86-3.14,38.39,7.24,48.7,14.01,2.58,1.66,5.08,3.46,7.48,5.38h0c1.44,1.57.82,4.16,2.06,5.4,2.96,3.25,6.73,5.63,10.94,6.91,2.55.79,5.28.66,7.75-.35.24-.11.44-.31.55-.55,10.34-20.34,28.05-35.98,49.52-43.72h0c6.33-2.15,12.39-5.04,18.04-8.61.15-.11,19.92-8.85,19.92-8.99"/>
    <path class="cls-1" d="M591.15,552.01c.74-.35.72-.82.7-1.01-.04-.52-5.59.91-7.13,1.27-.04,0-.38.19-.43.21-3.02,1.16-6.14,2.03-9.33,2.6h0c-2.64.88-6.95,5.1-8.19,6.37-.24.26-.53.47-.85.62-1.42.69-3.06.78-4.55.27l-.81-.38c-9.81-4.52-14.92-2.43-15.55-2.15-.24.11-.62.15-.65.31-.03.16-.1.25-.1.35-.01.05.02.1.06.11,0,0,.02,0,.03,0,.29,0,.57-.02.85-.07,5.26-.88,10.7,2.02,13.57,3.91.72.46,1.42.96,2.09,1.5h0c.4.44.23,1.16.57,1.51.82.9,1.88,1.57,3.05,1.92.71.22,1.47.18,2.16-.1.07-.03.12-.09.15-.15,2.88-5.67,7.82-10.03,13.8-12.18h0c1.76-.6,3.45-1.4,5.03-2.4.04-.03,5.55-2.47,5.55-2.5"/>
    <path class="cls-1" d="M1609.23,8.21c5.44-2.54,5.26-6.03,5.16-7.38-.32-3.81-41.05,6.71-52.37,9.33-.32,0-2.81,1.4-3.13,1.54-22.17,8.53-45.11,14.92-68.5,19.07h0c-19.39,6.43-51.06,37.42-60.17,46.8-1.78,1.89-3.9,3.43-6.25,4.53-10.45,5.05-22.47,5.75-33.44,1.95l-5.93-2.81c-72.03-33.21-109.59-17.85-114.17-15.77-1.77.82-4.53,1.09-4.76,2.27-.23,1.18-.77,1.81-.77,2.58-.1.36.11.74.47.84.07.02.14.03.21.02,2.09,0,4.18-.17,6.25-.5,38.6-6.43,78.56,14.81,99.67,28.68,5.29,3.41,10.4,7.08,15.31,11.01h0c2.94,3.22,1.68,8.52,4.21,11.05,6.05,6.64,13.78,11.53,22.38,14.14,5.21,1.61,10.82,1.35,15.86-.72.5-.23.9-.63,1.13-1.13,21.17-41.63,57.41-73.63,101.35-89.48h0c12.96-4.4,25.35-10.31,36.92-17.62.32-.23,40.77-18.12,40.77-18.39"/>
    <path class="cls-1" d="M1686.09,139.16c1.52-.71,1.46-1.68,1.44-2.06-.09-1.06-11.44,1.87-14.6,2.6-.09,0-.78.39-.87.43-6.18,2.38-12.57,4.16-19.09,5.32h0c-5.4,1.79-14.23,10.43-16.77,13.04-.5.53-1.09.95-1.74,1.26-2.91,1.41-6.26,1.6-9.32.54l-1.65-.78c-20.08-9.26-30.54-4.97-31.82-4.39-.49.23-1.26.3-1.33.63-.06.33-.21.51-.21.72-.03.1.03.21.13.23.02,0,.04,0,.06,0,.58,0,1.17-.05,1.74-.14,10.76-1.79,21.89,4.13,27.78,7.99,1.47.95,2.9,1.97,4.27,3.07h0c.82.9.47,2.37,1.17,3.08,1.69,1.85,3.84,3.21,6.24,3.94,1.45.45,3.01.38,4.42-.2.14-.06.25-.18.32-.32,5.9-11.6,16-20.52,28.24-24.94h0c3.61-1.23,7.07-2.87,10.29-4.91.09-.06,11.36-5.05,11.36-5.13"/>
  </g>
</svg>