<?xml version="1.0" encoding="UTF-8"?>
<svg id="Layer_2" data-name="Layer 2" xmlns="http://www.w3.org/2000/svg" viewBox="0 0 137.1 76">
  <defs>
    <style>
      .cls-1 {
        fill: #4d6f46;
      }
    </style>
  </defs>
  <g id="Layer_1-2" data-name="Layer 1">
    <g id="Layer_2-2" data-name="Layer 2">
      <g id="Layer_1-2" data-name="Layer 1-2">
        <g id="is_logo" data-name="is logo">
          <g>
            <path class="cls-1" d="M27.27,46.52c-1.99,1.13-4.17,1.96-6.27,2.89-2.21.98-4.4,2.01-6.57,3.09.11.15.23.3.32.46,1.37,2.47.09,5.67-1.52,7.68-2.2,2.75-5.77,4.73-9.36,4.54-2.42-.13-4.52-1.82-3.69-4.42.72-2.23,3.02-4.02,4.81-5.36,1.63-1.22,3.37-2.29,5.16-3.27-2.42-1.24-4.83-2.39-6.57-4.58-2.2-2.76-1.7-6.44.41-9.1,1.82-2.29,4.46-2.95,7.27-3.08.95-.05,2.16-.12,3.05.3.85.4,1.19,1.5.4,2.18-.59.5-1.31.28-1.7-.18,0,0-.02,0-.03,0-.28,0-.58-.04-.86-.04-.81,0-1.63.05-2.43.17-1.64.26-2.96.8-4,2.15-1.18,1.54-1.78,3.64-.83,5.44.85,1.61,2.55,2.75,4.11,3.6,1.13.61,2.45,1.13,3.61,1.84.06-.03.12-.06.18-.09,2.63-1.33,5.33-2.54,8.02-3.73,1.79-.79,3.64-1.51,5.33-2.48,1.28-.73,2.42,1.24,1.15,1.97ZM12.84,54.2c-.12-.25-.28-.47-.47-.67-.09.05-.18.09-.27.13-2.56,1.38-5.13,2.88-7.3,4.82-.86.77-4.04,3.65-1.57,4.32,3.44.93,7.58-1.99,9.11-4.89.54-1.03,1.02-2.58.51-3.71ZM6.36,33.74c-.21-.19-.33-.53-.33-.81,0-.33.14-.56.33-.81.96-1.24,1.92-2.48,2.89-3.72.34-.44,1.27-.45,1.61,0,.96,1.24,1.93,2.48,2.89,3.72.39.5.46,1.11,0,1.61-.38.42-1.25.47-1.61,0-.69-.89-1.39-1.79-2.08-2.68-.69.89-1.39,1.79-2.08,2.68-.39.5-1.2.38-1.61,0Z"/>
            <path class="cls-1" d="M62.53,45.97c-5.02,6.8-10,14.08-18.75,16.2-3.78.91-7.12.82-9.84-2.21-2.06-2.29-3.63-5.44-4.02-8.51-.96,1.01-1.94,2-2.85,3.06-2.16,2.52-4.37,5.3-5.55,8.44-.84,2.44-1.66,4.9-2.31,7.4-.25.95-.53,1.99-.63,2.92-.05.52-.03.73-.02.8.64.65.4,2.01-.74,1.93-4.33-.29,2.07-15.36,2.68-17.05,3.67-10.24,7.81-20.31,12.17-30.28,3.62-8.29,7.23-16.81,11.98-24.53.81-1.32,2.08-3.88,3.85-4.11,3.46-.45,2.42,5.08,2.02,6.82-1.44,6.28-4.42,12.34-7.51,17.95-4.2,7.63-9.26,14.8-15.15,21.22-1,2.5-1.99,5.01-2.94,7.54.19-.22.36-.45.55-.67,3-3.49,6.34-6.71,9.84-9.7,2.53-2.16,5.17-4.28,8.03-6.01,1.23-.74,3.42-2.22,4.91-1.35,2.87,1.68.62,6-.84,7.71-3.25,3.78-7.55,4.91-12.26,5.72-.58.1-2.69.21-3.09.78.16-.22.08.69.09.86.12,1.55.77,3.15,1.47,4.52.84,1.63,1.94,3.3,3.51,4.31,1.81,1.17,4.08.72,6.06.24,8.15-1.97,12.72-8.84,17.39-15.15.86-1.17,2.84-.03,1.96,1.15ZM18.29,73.84c-.11-.06-.25-.11-.46-.12.18.01.33.06.46.12ZM18.52,74.02s-.1-.11-.21-.17c.08.04.14.11.21.17ZM30.57,39.37c4.21-5.25,7.9-10.91,11.08-16.84,2.9-5.43,5.96-11.44,6.93-17.59.1-.63.03-1.8.03-2.39-.15.15-.33.31-.44.44-1.6,1.92-2.77,4.31-3.94,6.5-4.19,7.87-7.8,16.07-11.3,24.26-.8,1.87-1.58,3.74-2.36,5.61ZM34.38,47.09c.23-.04.45-.08.69-.12,4.43-.74,10.47-2.33,12.04-7.26.14-.43.19-.83.16-1.27,0-.13-.14-.4-.2-.56-.05.01-.11.02-.18.06-.88.54-1.91.89-2.81,1.45-2.93,1.84-5.64,4.05-8.24,6.33-.5.44-.97.91-1.46,1.36Z"/>
            <path class="cls-1" d="M87,46.2c-2.94,2.31-6.37,3.99-9.82,5.41-1.9.78-3.96,1.53-6.06,2.02-.13.25-.25.52-.38.76-1.2,2.19-2.64,4.31-4.32,6.17-1.32,1.46-3.01,3.05-5.04,3.36-3.67.57-3.88-3.14-3.34-5.77.5-2.4,1.47-4.82,2.8-6.98-.32-.58-.55-1.25-.69-2-.71-3.87,1.01-7.89,3.75-10.6,2.13-2.1,5.82-4.07,8.71-2.24,2.68,1.7,2.19,5.7,1.67,8.33-.42,2.11-1.09,4.22-1.92,6.25,4.6-1.27,9.33-3.44,13.02-6.32,1.14-.9,2.76.71,1.61,1.61ZM68.29,54.08c-.79.07-1.58.09-2.36.03-1.36-.1-2.53-.5-3.47-1.17-1.09,1.91-1.88,4.01-2.26,6.09-.12.63-.42,2.25.14,2.61,1.23.8,3.54-1.69,4.2-2.39,1.45-1.54,2.69-3.31,3.75-5.17ZM72.38,42.04c.15-2.15-.27-4.5-2.97-4.08-2.89.44-5.25,3.28-6.34,5.8-.59,1.36-1.06,3.51-.67,5.24.36-.45.73-.88,1.12-1.28,1.02-1.06,2.63.56,1.61,1.61-.52.54-1.01,1.14-1.47,1.76.03.02.05.05.08.07,1.58,1.07,3.96.79,5.85.41.16-.35.34-.69.48-1.04,1.12-2.67,2.12-5.59,2.32-8.5Z"/>
            <path class="cls-1" d="M110.25,46.2c-6.34,7.61-12.73,15.25-19.62,22.37-1.95,2.02-4.04,4.03-6.84,4.76-2.41.63-5.18.03-5.98-2.61-.76-2.51.52-5.25,1.32-7.6.87-2.53,1.77-5.04,2.7-7.55,2.26-6.11,4.63-12.18,7.08-18.22,4.39-10.82,8.75-21.92,14.54-32.1.9-1.58,2.56-5.32,4.83-5.24,3.35.12,2.16,5.69,1.76,7.55-1.34,6.21-4.09,12.22-7.06,17.81-3.99,7.52-8.89,14.57-14.67,20.83-.19.2-.4.29-.61.32-1.45,3.72-2.88,7.45-4.25,11.2-.77,2.12-1.53,4.24-2.25,6.37-.6,1.76-2.48,5.51-.58,6.9,1.99,1.46,5.34-1.08,6.71-2.34,1.74-1.61,3.32-3.4,4.92-5.14,5.63-6.16,11.05-12.51,16.39-18.92.94-1.13,2.54.49,1.61,1.61ZM102.8,11.37c-4.76,9.57-8.87,19.48-12.83,29.41,4.5-5.46,8.4-11.4,11.64-17.69,2.76-5.37,5.42-11.19,6.45-17.18.21-1.2.03-2.29.03-3.42-.15.15-.34.33-.44.46-2.06,2.42-3.44,5.61-4.84,8.43Z"/>
            <path class="cls-1" d="M137.01,45.7c-1.05,2.51-2.3,4.95-3.68,7.3-1.9,3.22-4.14,6.55-7.22,8.77-2.07,1.5-5.96,2.94-7.22-.25-1.16-2.93-.11-6.84.58-9.75.09-.38.19-.77.29-1.16-1.47,1.77-3.06,3.44-4.65,4.99-1.79,1.75-5.38,5.62-8.3,4.62-1.93-.67-2.52-2.94-2.5-4.76.04-2.71,1.05-5.43,2.37-7.76,1.52-2.71,3.69-5.2,6.08-7.17,1.6-1.32,3.69-2.89,5.81-3.21,1.98-.3,3.11,1.2,2.98,3.07-.16,2.43-1.58,4.73-3.13,6.53-.96,1.11-2.56-.5-1.61-1.61.82-.96,1.52-2.04,1.99-3.22.2-.5.78-1.82.46-2.37-.44-.74-3.47,1.35-4.05,1.77-3.87,2.78-7.2,7.08-8.32,11.77-.3,1.27-.74,3.54.36,4.59.56.53,1.39-.02,2.07-.43,2.82-1.69,5.18-4.31,7.33-6.76,2.18-2.49,4.34-5.17,5.8-8.15.65-1.33,2.57-.17,1.97,1.15-1.3,2.83-2.12,6-2.81,9.02-.37,1.62-.7,3.27-.81,4.93-.07.95-.24,2.38.29,3.25.39.64,1.45.26,2.17-.04,1.39-.57,2.56-1.64,3.58-2.71,2.33-2.45,4.12-5.41,5.72-8.37.59-1.11,1.16-2.23,1.69-3.37.17-.37.34-.75.51-1.12.08-.19.23-.55.06-.14.56-1.34,2.76-.75,2.2.6Z"/>
          </g>
        </g>
      </g>
    </g>
  </g>
</svg>