<?xml version="1.0" encoding="UTF-8"?><svg id="Layer_2" xmlns="http://www.w3.org/2000/svg" viewBox="0 0 236.3 141"><defs><style>.cls-1{fill:#349f37;}.cls-2{fill:#375ba4;}.cls-3{fill:#fff;}.cls-4{fill:#f7b815;}.cls-5{fill:#df1b1f;}</style></defs><g id="Layer_1-2"><path class="cls-3" d="M.3,0v141h236V0H.3ZM20.78,82.67C27.44,36.17,67.41.43,115.75.43c31.6,0,59.59,15.3,77.07,38.87,2.25,3.03,4.35,6.19,6.23,9.48,1.13,1.97,2.17,3.98,3.15,6.04-.33.17-.62.31-.69.34-21.29,8.32-41.44,11.65-42.37,11.8-.02,0-.04.01-.07.01-11.98,3.96-31.58,23.23-37.2,28.92-1.11,1.13-2.42,2.06-3.88,2.7-11.89,5.15-20.67,1.22-20.67,1.22-1.24-.6-2.47-1.18-3.68-1.74-44.54-20.55-67.78-11.06-70.6-9.76-1.09.49-2.8.67-2.96,1.4-.01.05-.02.1-.04.15.16-2.42.41-4.83.74-7.19Z"/><path class="cls-2" d="M200.64,141c2.47-4.7,4.61-9.59,6.29-14.7-59.87-12.68-121.01-8.33-182.27.24,1.66,5.02,3.76,9.84,6.2,14.46h169.79Z"/><path class="cls-4" d="M204.74,60.66h0c-1.42.81-2.86,1.58-4.3,2.33-4.35,2.26-8.79,4.36-13.27,6.37-1.5.67-3,1.34-4.5,2-16.53,7.24-33.44,13.88-48.08,24.63-.01.01-.02.01-.03.02-17.49,4.6-35.33,8.05-53.37,10.63-19.83,2.84-39.91,4.62-60.04,5.72h0c-.88-5.21-1.36-10.53-1.36-15.97,0-.39.04-.77.04-1.16.02-1.1.05-2.2.1-3.29.03-.69.07-1.39.11-2.08.02-.05.03-.1.04-.15.16-.73,1.87-.91,2.96-1.4,2.82-1.3,26.06-10.79,70.6,9.76,1.21.56,2.44,1.14,3.68,1.74,0,0,8.78,3.93,20.67-1.22,1.46-.64,2.77-1.57,3.88-2.7,5.62-5.69,25.22-24.96,37.2-28.92.03,0,.05-.01.07-.01.93-.15,21.08-3.48,42.37-11.8.07-.03.36-.17.69-.34.9,1.91,1.75,3.86,2.54,5.84Z"/><path class="cls-5" d="M210.18,79.54c-.69-3.86-1.61-7.64-2.75-11.33-.78-2.56-1.71-5.07-2.69-7.54-22.76,12.74-48.86,19.7-70.16,35.33-36.74,9.67-74.98,14.27-113.44,16.36.82,4.86,1.99,9.6,3.51,14.19,61.26-8.57,122.41-12.91,182.27-.24,3.09-9.41,4.78-19.46,4.78-29.91,0-5.76-.55-11.37-1.52-16.85h0Z"/><path class="cls-1" d="M110.26,124.24c45.48,0,87.44,2.67,121.24,7.18-26.37-9.08-69.3-15-117.82-15S26.61,121.76,0,130.07c31.73-3.68,69.58-5.83,110.26-5.83h0Z"/><path class="cls-3" d="M232.66,53.01c0,.26-24.96,11.24-25.16,11.36-.37.23-.74.47-1.11.69-2.82,1.75-5.89,3.46-9.24,5.08-3.8,1.84-7.95,3.58-12.49,5.14-.19.06-31.17,9.08-54.13,41.38-.4.57-.8,1.14-1.2,1.72-1.31,1.91-2.58,3.89-3.82,5.96-1.21,2.02-2.39,4.11-3.53,6.29-.15.29-.39.54-.69.68-1.06.5-4.61,1.82-9.83.46-3.51-.92-7.77-3.03-12.53-7.47-.43-.41-.87-.83-1.31-1.27-.91-.91-1.03-2.38-1.32-3.84-.17-.87-.41-1.74-.9-2.48-.11-.18-.24-.35-.39-.51h-.01c-.27-.22-3.78-3.1-9.47-6.83-1.33-.87-2.78-1.79-4.34-2.73h-.01c-13.78-8.34-35.9-18.58-57.35-15.01-.01,0-1.99.34-3.84.32-.02,0-.04,0-.06-.01-.25-.03-.43-.26-.37-.51.09-.43.35-1.08.48-1.57.02-.05.03-.1.04-.15.16-.73,1.87-.91,2.96-1.4,2.82-1.3,26.06-10.79,70.6,9.76,1.21.56,2.44,1.14,3.68,1.74,0,0,8.78,3.93,20.67-1.22,1.46-.64,2.77-1.57,3.88-2.7,5.62-5.69,25.22-24.96,37.2-28.92.03,0,.05-.01.07-.01.93-.15,21.08-3.48,42.37-11.8.07-.03.36-.17.69-.34.51-.26,1.12-.58,1.24-.6,7.01-1.65,32.19-8.14,32.38-5.78.08.84.19,2.99-3.16,4.57Z"/></g></svg>