<?xml version="1.0" encoding="UTF-8"?><svg id="Layer_2" xmlns="http://www.w3.org/2000/svg" viewBox="0 0 415.29 273.87"><g id="Layer_1-2"><g id="SG_loogo"><path d="M36.46,184.73c-.97-.81-2.1-1.5-3.38-2.09-1.28-.57-2.62-1.14-4.02-1.7-1.35-.56-2.54-1.07-3.59-1.53s-1.93-.96-2.65-1.5c-.73-.53-1.27-1.15-1.64-1.85-.37-.7-.56-1.54-.56-2.51s.21-1.81.63-2.49.98-1.23,1.67-1.67c.7-.45,1.5-.77,2.41-.98.9-.21,1.87-.31,2.9-.31,2.56,0,4.51.24,5.82.69,1.33.46,2.27.84,2.82,1.12l1.05-4.05c-.65-.32-1.78-.69-3.38-1.12s-3.64-.63-6.1-.63c-3.86,0-6.9.9-9.1,2.72s-3.31,4.18-3.31,7.12c0,1.53.28,2.84.84,3.91.56,1.07,1.3,2,2.23,2.76.93.77,2,1.45,3.21,2.03,1.21.58,2.49,1.15,3.84,1.71,1.67.69,3.08,1.3,4.22,1.82,1.14.51,2.06,1.05,2.76,1.61.7.56,1.2,1.19,1.5,1.89.3.7.46,1.54.46,2.51,0,2.05-.85,3.5-2.55,4.36-1.7.86-3.85,1.29-6.46,1.29-1.45,0-2.71-.09-3.8-.28-1.09-.18-2.04-.41-2.82-.66-.79-.25-1.42-.49-1.89-.7s-.77-.36-.9-.46l-1.19,4.13c.56.28,1.67.68,3.35,1.22s4.09.8,7.25.8c4.24,0,7.57-.84,10.02-2.51,2.44-1.68,3.66-4.14,3.66-7.4,0-1.72-.3-3.15-.9-4.29-.58-1.16-1.38-2.13-2.36-2.95"/><path d="M76.52,167.92c-1.02-1.18-2.37-2.11-4.02-2.79s-3.67-1.01-6.04-1.01-4.32.16-5.97.49c-1.65.33-2.87.68-3.66,1.05l.63,3.97c.6-.24,1.56-.53,2.86-.9s3.28-.56,5.93-.56c1.86,0,3.36.29,4.51.87,1.14.58,2.02,1.34,2.65,2.3.63.96,1.03,2.02,1.22,3.21.19,1.19.28,2.41.28,3.66v2.23c-.19-.09-.52-.19-1.01-.31-.49-.11-1.07-.24-1.74-.35-.68-.11-1.38-.21-2.1-.28-.72-.07-1.4-.1-2.05-.1-2.19,0-4.21.21-6.07.63-1.86.42-3.47,1.08-4.82,1.99s-2.4,2.06-3.14,3.46c-.74,1.39-1.12,3.07-1.12,5.02s.34,3.78,1.01,5.2,1.61,2.58,2.79,3.48,2.58,1.57,4.18,1.99c1.61.42,3.36.63,5.27.63,1.49,0,2.94-.06,4.36-.18,1.42-.12,2.71-.27,3.87-.46,1.16-.19,2.18-.36,3.07-.52.88-.16,1.56-.31,2.02-.46v-22.75c0-1.91-.23-3.68-.69-5.31-.46-1.61-1.2-3.02-2.22-4.2M74.92,197.12c-.93.19-2.06.34-3.38.46-1.33.11-2.87.17-4.64.17-1.45,0-2.74-.13-3.87-.38-1.14-.25-2.12-.66-2.93-1.22s-1.45-1.3-1.89-2.24c-.44-.93-.66-2.06-.66-3.42,0-1.53.32-2.77.98-3.69.65-.93,1.49-1.67,2.51-2.2s2.14-.88,3.35-1.05c1.21-.16,2.38-.25,3.49-.25,1.95,0,3.49.13,4.61.38,1.12.25,1.93.5,2.44.73v12.71h0Z"/><path d="M117.58,172.88c-.82,2.82-1.7,5.6-2.66,8.37-.96,2.77-1.94,5.44-2.98,8.02-1.02,2.59-2.03,4.88-3.01,6.88-.98-2-1.99-4.29-3.01-6.88-1.03-2.58-2.02-5.25-2.98-8.02s-1.84-5.56-2.66-8.37c-.81-2.82-1.5-5.45-2.06-7.92h-4.82c.85,3.31,1.78,6.56,2.81,9.76,1.03,3.21,2.12,6.35,3.26,9.43,1.15,3.07,2.32,6.03,3.54,8.86,1.22,2.84,2.43,5.51,3.65,8.03h4.23c1.17-2.51,2.38-5.19,3.61-8.03,1.24-2.83,2.43-5.79,3.58-8.86s2.24-6.21,3.26-9.43c1.02-3.21,1.96-6.47,2.81-9.76h-4.54c-.52,2.46-1.22,5.1-2.04,7.92"/><path d="M150.77,164.26c-2.93,0-5.42.27-7.46.8s-3.65,1.06-4.81,1.57v34.41h4.53v-31.62c.37-.19,1.15-.42,2.34-.7s2.76-.42,4.71-.42,3.36.11,4.5.31c1.14.21,1.89.41,2.27.59l.9-3.91c-.52-.24-1.43-.46-2.76-.7-1.33-.22-2.73-.34-4.22-.34"/><path d="M185.17,164.11c-2,0-3.94.38-5.82,1.15-1.89.76-3.56,1.94-5.02,3.53s-2.65,3.55-3.56,5.9-1.36,5.11-1.36,8.28c0,2.75.32,5.27.98,7.57.65,2.3,1.7,4.29,3.14,5.97s3.28,2.98,5.51,3.91,4.93,1.39,8.1,1.39c2.42,0,4.52-.25,6.31-.77,1.79-.51,3.01-.95,3.66-1.32l-.84-3.91c-.65.33-1.7.73-3.14,1.19-1.45.46-3.4.7-5.86.7-4.46,0-7.73-1.19-9.77-3.56-2.05-2.38-3.14-5.77-3.28-10.19h25.34c.04-.33.08-.68.1-1.05s.03-.74.03-1.12c0-6-1.31-10.44-3.94-13.33-2.64-2.89-6.16-4.34-10.58-4.34M174.36,180.09c.09-1.58.41-3.09.95-4.54.53-1.44,1.28-2.71,2.23-3.8.96-1.09,2.07-1.97,3.35-2.62,1.28-.65,2.73-.97,4.36-.97,3.07,0,5.44,1.05,7.12,3.14s2.56,5.02,2.65,8.79h-20.66Z"/><path d="M263.06,168.9c-.93-1.47-2.25-2.6-3.95-3.42-1.7-.81-3.92-1.22-6.66-1.22-1.67,0-3.2.16-4.57.49-1.38.32-2.57.72-3.59,1.18s-1.88.92-2.54,1.36c-.68.44-1.13.75-1.36.94-2.05-2.65-5.35-3.97-9.91-3.97-3.44,0-6.25.23-8.41.69-2.16.46-3.92.89-5.27,1.26v34.82h4.54v-31.68c.41-.19,1.39-.4,2.89-.63,1.51-.23,3.36-.35,5.55-.35,1.95,0,3.53.3,4.72.87,1.18.58,2.1,1.45,2.76,2.59.65,1.14,1.08,2.59,1.29,4.33s.31,3.8.31,6.17v18.7h4.54v-20.52c0-1.67-.1-3.26-.31-4.78s-.52-2.87-.95-4.08c.24-.19.62-.46,1.15-.84.53-.37,1.22-.74,2.05-1.12.84-.36,1.83-.68,2.97-.94,1.14-.26,2.41-.39,3.8-.39,1.86,0,3.37.3,4.54.87,1.17.58,2.05,1.45,2.69,2.59.63,1.14,1.05,2.59,1.25,4.33.21,1.74.31,3.8.31,6.17v18.7h4.54v-20.17c0-2.42-.16-4.65-.49-6.7-.33-2.03-.96-3.79-1.89-5.25"/><path d="M297.6,164.11c-2,0-3.94.38-5.82,1.15-1.89.76-3.56,1.94-5.02,3.53s-2.65,3.55-3.56,5.9c-.9,2.35-1.36,5.11-1.36,8.28,0,2.75.33,5.27.98,7.57s1.7,4.29,3.14,5.97c1.44,1.67,3.28,2.98,5.51,3.91,2.23.93,4.93,1.39,8.09,1.39,2.42,0,4.52-.25,6.31-.77,1.79-.51,3.01-.95,3.66-1.32l-.84-3.91c-.65.33-1.7.73-3.14,1.19-1.45.46-3.4.7-5.86.7-4.46,0-7.73-1.19-9.77-3.56-2.05-2.38-3.14-5.77-3.28-10.19h25.34c.04-.33.08-.68.1-1.05s.03-.74.03-1.12c0-6-1.32-10.44-3.94-13.33-2.64-2.89-6.15-4.34-10.58-4.34M286.78,180.09c.09-1.58.41-3.09.95-4.54.53-1.44,1.28-2.71,2.23-3.8.96-1.09,2.07-1.97,3.35-2.62,1.28-.65,2.73-.97,4.36-.97,3.07,0,5.44,1.05,7.12,3.14s2.56,5.02,2.65,8.79h-20.66Z"/><path d="M354.3,168.82c-1.1-1.46-2.56-2.6-4.4-3.38-1.83-.79-4.13-1.19-6.87-1.19-3.31,0-6.1.23-8.38.69-2.28.46-4.09.89-5.44,1.26v34.82h4.54v-31.68c.46-.19,1.48-.4,3.03-.63,1.56-.23,3.41-.35,5.55-.35,2,0,3.67.25,4.99.74,1.33.49,2.39,1.29,3.21,2.41.81,1.12,1.39,2.56,1.74,4.33s.52,3.93.52,6.49v18.7h4.54v-20.17c0-2.47-.24-4.73-.7-6.77-.46-2.04-1.24-3.79-2.33-5.26"/><path d="M399.14,172.14c-.46-1.63-1.21-3.03-2.23-4.23-1.02-1.18-2.36-2.11-4.02-2.79-1.65-.68-3.67-1.01-6.04-1.01s-4.32.16-5.96.49c-1.65.33-2.87.68-3.66,1.05l.63,3.97c.6-.24,1.56-.53,2.86-.9s3.28-.56,5.93-.56c1.86,0,3.36.29,4.5.87s2.02,1.34,2.65,2.3c.63.96,1.03,2.02,1.22,3.21.19,1.19.28,2.41.28,3.66v2.23c-.19-.09-.52-.19-1.01-.31-.48-.11-1.07-.24-1.74-.35-.68-.11-1.38-.21-2.1-.28s-1.4-.1-2.05-.1c-2.19,0-4.21.21-6.07.63-1.86.42-3.47,1.08-4.82,1.99s-2.39,2.06-3.14,3.46c-.74,1.39-1.12,3.07-1.12,5.02s.34,3.78,1.01,5.2c.67,1.42,1.61,2.58,2.79,3.48s2.59,1.57,4.18,1.99c1.61.42,3.36.63,5.27.63,1.49,0,2.94-.06,4.36-.18,1.42-.12,2.71-.27,3.87-.46,1.16-.19,2.19-.36,3.07-.52.89-.16,1.56-.31,2.02-.46v-22.75c0-1.89-.22-3.66-.68-5.28M395.3,197.12c-.93.19-2.06.34-3.38.46-1.33.11-2.87.17-4.64.17-1.45,0-2.74-.13-3.87-.38-1.14-.25-2.11-.66-2.93-1.22-.81-.56-1.45-1.3-1.89-2.24-.44-.93-.67-2.06-.67-3.42,0-1.53.33-2.77.98-3.69.65-.93,1.49-1.67,2.51-2.2s2.14-.88,3.35-1.05c1.21-.16,2.38-.25,3.49-.25,1.95,0,3.49.13,4.61.38,1.12.25,1.93.5,2.44.73v12.71h0Z"/><path d="M31.47,267.02c-.6.19-1.6.38-2.97.59s-3.03.31-4.99.31c-2.75,0-5.13-.46-7.15-1.39-2.02-.93-3.72-2.25-5.1-3.95-1.38-1.7-2.4-3.74-3.07-6.1-.68-2.38-1.01-5-1.01-7.89s.4-5.66,1.18-8.06c.79-2.4,1.89-4.43,3.31-6.11,1.42-1.67,3.14-2.96,5.17-3.84,2.02-.89,4.27-1.33,6.74-1.33,2.32,0,4.61.3,6.84.88,2.23.57,4.02,1.31,5.38,2.2l2.16-5.66c-.28-.19-.8-.46-1.57-.84s-1.76-.74-2.97-1.12-2.66-.7-4.36-.98c-1.7-.28-3.64-.42-5.82-.42-3.21,0-6.22.56-9.04,1.67-2.82,1.12-5.27,2.75-7.36,4.88-2.1,2.15-3.75,4.78-4.99,7.92-1.23,3.15-1.85,6.75-1.85,10.8s.55,7.63,1.64,10.74c1.09,3.11,2.64,5.75,4.64,7.89,2,2.14,4.4,3.77,7.19,4.88,2.79,1.12,5.88,1.67,9.28,1.67,1.67,0,3.33-.08,4.95-.25,1.63-.16,3.13-.36,4.5-.6,1.37-.23,2.59-.46,3.63-.69,1.05-.24,1.85-.44,2.41-.63v-22.61h-6.77v18.02h0Z"/><rect x="55.83" y="224.45" width="6.77" height="48.36"/><path d="M122.27,224.45c-1.26,2.05-2.6,4.46-4.05,7.26-1.45,2.79-2.88,5.71-4.33,8.76-1.45,3.04-2.84,6.1-4.18,9.14-1.35,3.05-2.58,5.82-3.69,8.34-1.12-2.51-2.35-5.29-3.7-8.34-1.35-3.04-2.75-6.1-4.18-9.14-1.45-3.05-2.88-5.97-4.33-8.76s-2.79-5.21-4.05-7.26h-5.93c-.42,3.49-.8,7.19-1.15,11.1-.35,3.91-.68,7.92-.97,12.04-.3,4.12-.57,8.3-.8,12.56-.23,4.26-.44,8.48-.63,12.66h6.63c.23-6.51.51-12.97.84-19.37.32-6.4.74-12.34,1.26-17.83.46.79,1.08,1.93,1.84,3.42.77,1.49,1.6,3.18,2.48,5.06.88,1.89,1.83,3.88,2.82,6,1.01,2.12,1.94,4.18,2.82,6.18.88,2,1.71,3.86,2.48,5.58.77,1.72,1.39,3.14,1.85,4.26h5.44c.46-1.12,1.08-2.54,1.85-4.26.77-1.72,1.59-3.58,2.48-5.58.89-2,1.83-4.06,2.82-6.18,1-2.11,1.94-4.12,2.82-6,.89-1.88,1.71-3.57,2.48-5.06.77-1.49,1.39-2.63,1.85-3.42.51,5.49.93,11.43,1.26,17.83.32,6.4.6,12.85.84,19.37h6.63c-.79-16.65-1.98-32.78-3.56-48.36h-5.93Z"/><path d="M181.51,260.25c-1.49-2.47-3.31-5.28-5.48-8.45s-4.46-6.38-6.91-9.66c-2.44-3.28-4.91-6.47-7.4-9.56-2.49-3.09-4.83-5.8-7.02-8.13h-5.38v48.36h6.63v-37.75c1.3,1.49,2.72,3.21,4.26,5.17,1.54,1.95,3.12,4.03,4.74,6.25,1.63,2.21,3.27,4.5,4.92,6.87,1.65,2.38,3.25,4.71,4.78,7.01,1.54,2.3,2.97,4.53,4.29,6.67,1.33,2.14,2.5,4.07,3.53,5.79h5.65v-48.36h-6.63v35.8h0Z"/><path d="M236.82,246.22c-1.56-3.91-3.1-7.64-4.64-11.2-1.54-3.56-3.14-7.08-4.82-10.58h-6.21c-1.67,3.49-3.28,7.02-4.82,10.58-1.54,3.56-3.09,7.29-4.64,11.2-1.56,3.91-3.15,8.04-4.78,12.38-1.63,4.35-3.37,9.09-5.23,14.2h7.05l4.4-12.35h21.91c.74,2.1,1.46,4.15,2.16,6.18.7,2.02,1.45,4.07,2.23,6.17h7.4c-1.86-5.11-3.61-9.85-5.23-14.2-1.61-4.35-3.21-8.48-4.77-12.38M215.08,254.87c1.45-4.05,2.9-7.96,4.36-11.76,1.46-3.79,3.01-7.43,4.64-10.92,1.58,3.49,3.1,7.14,4.57,10.92,1.46,3.8,2.94,7.71,4.43,11.76h-18.01Z"/><path d="M269.79,260.38c1.44-2.32,2.97-4.66,4.57-7.01s3.25-4.67,4.92-6.98c1.67-2.3,3.3-4.49,4.89-6.56,1.58-2.07,3.08-3.96,4.5-5.65,1.42-1.7,2.66-3.15,3.74-4.36v-5.38h-33.15v5.79h24.85c-1.25,1.45-2.64,3.12-4.15,5.02s-3.07,3.96-4.67,6.14c-1.61,2.19-3.22,4.46-4.85,6.85-1.62,2.38-3.2,4.73-4.71,7.05s-2.93,4.61-4.26,6.84c-1.33,2.23-2.48,4.28-3.45,6.14v4.54h35.1v-5.79h-27.21c1.16-2.1,2.46-4.31,3.9-6.64"/><rect x="308.66" y="224.45" width="6.77" height="48.36"/><path d="M350.88,256.62c0,4.14-.77,7.06-2.3,8.76s-3.97,2.55-7.33,2.55c-2.32,0-4.27-.39-5.82-1.15-1.56-.76-2.82-1.5-3.8-2.2l-2.65,5.38c.46.42,1.09.85,1.89,1.29.79.44,1.72.86,2.79,1.25,1.07.4,2.27.72,3.59.98,1.33.25,2.78.38,4.36.38,3.12,0,5.71-.43,7.78-1.29,2.07-.86,3.72-2.05,4.95-3.56,1.23-1.51,2.1-3.26,2.58-5.27.49-2,.74-4.16.74-6.49v-32.79h-6.77v32.16h0Z"/><path d="M410.06,258.61c-1.62-4.35-3.22-8.48-4.78-12.38-1.56-3.91-3.1-7.64-4.64-11.2-1.53-3.56-3.14-7.08-4.82-10.58h-6.21c-1.67,3.49-3.28,7.02-4.82,10.58-1.53,3.56-3.09,7.29-4.64,11.2-1.56,3.91-3.15,8.04-4.78,12.38-1.63,4.35-3.37,9.09-5.23,14.2h7.05l4.4-12.35h21.91c.74,2.1,1.46,4.15,2.16,6.18.7,2.02,1.44,4.07,2.23,6.17h7.4c-1.85-5.11-3.6-9.86-5.22-14.2M383.54,254.87c1.44-4.05,2.9-7.96,4.36-11.76,1.46-3.79,3.01-7.43,4.64-10.92,1.58,3.49,3.1,7.14,4.57,10.92,1.46,3.8,2.94,7.71,4.43,11.76h-18.01Z"/><rect x="103.82" y="209.78" width="103.82" height="4.42"/><rect y="209.78" width="103.82" height="4.42"/><rect x="207.64" y="209.78" width="103.82" height="4.42"/><rect x="311.47" y="209.78" width="103.82" height="4.42"/><path d="M213.64,129.01c-.15.29-.39.53-.69.68-1.04.5-4.57,1.81-9.74.46-3.3-.86-7.27-2.81-11.71-6.77-25.62.24-50.61,1.33-73.75,3.24,1.55,4.39,3.41,8.63,5.56,12.7h168.28c1.99-3.79,3.75-7.71,5.24-11.77-24.69-2.37-51.79-3.78-80.06-4.14-1.07,1.81-2.13,3.66-3.14,5.6Z"/><path d="M115.55,87.05c2.79-1.29,25.83-10.69,69.99,9.68,1.2.55,2.42,1.12,3.65,1.72,0,0,8.71,3.9,20.5-1.2,1.45-.63,2.74-1.55,3.84-2.68,5.57-5.65,25-24.74,36.89-28.67.02,0,.04,0,.06-.01.92-.15,20.89-3.45,42-11.7.07-.03.33-.16.63-.31-.96-2.02-1.98-4.01-3.09-5.95-1.87-3.26-3.95-6.38-6.18-9.39C266.52,15.17,238.78,0,207.46,0c-47.91,0-87.53,35.43-94.12,81.52-.33,2.27-.55,4.57-.7,6.89.22-.69,1.85-.88,2.91-1.36Z"/><path d="M222.52,114.61c28.03.84,54.43,3.73,75.89,8.23,2.68-8.78,4.16-18.09,4.16-27.75,0-5.69-.55-11.26-1.52-16.68-.68-3.83-1.6-7.57-2.72-11.23-.33-1.07-.69-2.11-1.05-3.16-5.95,3.68-13.04,7.19-21.51,10.12-.18.05-30.54,8.9-53.26,40.47Z"/><path d="M177.5,107.93c-.43-.28-.91-.59-1.37-.88-.6-.39-1.22-.77-1.87-1.17-13.56-8.37-36.09-19.17-57.93-15.53,0,0-1.96.33-3.79.31-.05,1.1-.13,2.19-.14,3.3,0,.39-.04.76-.04,1.14,0,5.39.48,10.68,1.35,15.82h0c.64,3.79,1.56,7.47,2.62,11.1,20.35-3.99,44.62-6.53,70.52-7.36-.43-.35-3.84-3.13-9.34-6.73Z"/><path d="M189.48,121.48c-.88-.88-1.02-2.32-1.3-3.75-.13-.65-.3-1.29-.57-1.88-26.07.8-50.51,3.33-70.96,7.34-6.05,1.18-11.77,2.5-17.06,3.93,5.76-.61,11.72-1.15,17.75-1.65,22.89-1.9,47.54-3.02,72.88-3.29-.25-.24-.49-.45-.74-.7Z"/><path d="M298.06,124.01c-21.57-4.52-48.16-7.4-76.37-8.21-.26.37-.52.74-.78,1.11-1.16,1.7-2.3,3.47-3.41,5.3,28.17.38,55.14,1.82,79.75,4.19,6.3.61,12.5,1.26,18.46,1.99-5.39-1.6-11.31-3.07-17.65-4.39Z"/></g></g></svg>