<?xml version="1.0" encoding="UTF-8"?> <svg xmlns="http://www.w3.org/2000/svg" id="Layer_2" viewBox="0 0 518.94 88.62"><defs><style>.cls-1{fill:#37a649;}.cls-2{fill:#fff;}.cls-3{fill:#3463aa;}.cls-4{fill:#e42b2d;}.cls-5{fill:#f6b52e;}</style></defs><g id="Layer_1-2"><g id="SOŠ"><path class="cls-2" d="M188.74,20.76c-.86-.71-1.84-1.32-2.96-1.83-1.12-.51-2.29-1-3.52-1.49-1.18-.49-2.23-.93-3.15-1.34-.92-.4-1.69-.84-2.32-1.31-.63-.47-1.11-1.01-1.44-1.62-.33-.61-.49-1.35-.49-2.2s.19-1.58.55-2.17c.36-.59.86-1.08,1.47-1.47.61-.39,1.31-.67,2.11-.86.79-.18,1.64-.28,2.54-.28,2.24,0,3.94.21,5.1.61,1.16.41,1.98.73,2.48.98l.92-3.55c-.57-.28-1.56-.61-2.96-.98-1.41-.37-3.19-.55-5.35-.55-3.38,0-6.04.79-7.98,2.38-1.93,1.59-2.9,3.67-2.9,6.23,0,1.35.25,2.49.73,3.42.49.94,1.14,1.74,1.96,2.41.81.67,1.75,1.26,2.81,1.77,1.06.51,2.18,1.01,3.36,1.5,1.47.61,2.7,1.14,3.7,1.59,1,.45,1.8.92,2.41,1.41.61.49,1.05,1.04,1.31,1.65.27.61.4,1.35.4,2.2,0,1.79-.74,3.07-2.23,3.82-1.49.75-3.37,1.13-5.65,1.13-1.26,0-2.37-.08-3.33-.25-.96-.16-1.78-.36-2.47-.58-.69-.23-1.24-.43-1.65-.61-.41-.18-.67-.31-.79-.4l-1.04,3.61c.49.24,1.47.6,2.93,1.07,1.47.47,3.59.7,6.36.7,3.71,0,6.63-.73,8.77-2.2,2.14-1.47,3.21-3.63,3.21-6.48,0-1.51-.26-2.76-.79-3.76-.53-1-1.22-1.85-2.08-2.57"></path><path class="cls-2" d="M223.82,6.03c-.9-1.04-2.07-1.85-3.52-2.44-1.45-.59-3.21-.89-5.29-.89s-3.78.14-5.23.43c-1.45.28-2.52.59-3.21.92l.55,3.48c.53-.2,1.36-.47,2.5-.79,1.14-.33,2.87-.49,5.2-.49,1.63,0,2.94.25,3.94.76,1,.51,1.77,1.18,2.32,2.02.55.84.9,1.77,1.07,2.81.16,1.04.24,2.11.24,3.21v1.96c-.16-.08-.46-.17-.89-.28-.43-.1-.94-.2-1.53-.31-.59-.1-1.2-.18-1.84-.25-.63-.06-1.23-.09-1.8-.09-1.91,0-3.69.18-5.32.55-1.63.37-3.04.95-4.22,1.74-1.18.79-2.1,1.8-2.75,3.03-.65,1.22-.98,2.69-.98,4.4s.3,3.31.89,4.55c.59,1.24,1.41,2.26,2.44,3.06,1.04.79,2.26,1.38,3.67,1.74,1.41.37,2.94.55,4.62.55,1.3,0,2.58-.05,3.82-.15,1.24-.1,2.37-.23,3.39-.4,1.02-.16,1.91-.32,2.69-.46.77-.14,1.36-.28,1.77-.4V14.38c0-1.67-.2-3.22-.61-4.65-.41-1.43-1.06-2.66-1.95-3.7M222.42,31.61c-.82.16-1.8.29-2.96.4-1.16.1-2.52.15-4.07.15-1.26,0-2.39-.11-3.39-.33-1-.22-1.86-.58-2.57-1.07-.72-.49-1.26-1.14-1.65-1.96-.39-.81-.58-1.81-.58-2.99,0-1.34.28-2.42.86-3.24.57-.81,1.31-1.46,2.2-1.93.89-.47,1.87-.77,2.93-.92,1.06-.14,2.08-.21,3.06-.21,1.71,0,3.05.11,4.03.33.98.23,1.69.44,2.14.64v11.13Z"></path><path class="cls-2" d="M259.78,10.37c-.72,2.47-1.49,4.91-2.33,7.33-.84,2.43-1.7,4.77-2.61,7.03-.9,2.26-1.78,4.27-2.64,6.02-.86-1.75-1.74-3.76-2.64-6.02-.9-2.26-1.77-4.6-2.61-7.03-.84-2.42-1.61-4.87-2.33-7.33-.72-2.47-1.32-4.78-1.81-6.94h-4.22c.74,2.89,1.56,5.74,2.46,8.56.9,2.81,1.86,5.56,2.86,8.25,1,2.69,2.04,5.28,3.1,7.76,1.07,2.49,2.13,4.83,3.2,7.03h3.7c1.02-2.2,2.08-4.54,3.16-7.03,1.09-2.48,2.14-5.07,3.14-7.76,1-2.69,1.96-5.44,2.86-8.25.9-2.81,1.72-5.66,2.46-8.56h-3.98c-.49,2.16-1.09,4.47-1.81,6.94"></path><path class="cls-2" d="M288.85,2.82c-2.57,0-4.75.24-6.54.7-1.79.47-3.2.93-4.22,1.38v30.13h3.97V7.35c.33-.16,1.01-.37,2.05-.61,1.04-.24,2.41-.37,4.12-.37s2.94.09,3.94.28c1,.18,1.66.36,1.99.52l.79-3.42c-.45-.2-1.25-.4-2.41-.61-1.16-.2-2.39-.31-3.7-.31"></path><path class="cls-2" d="M318.98,2.7c-1.75,0-3.45.33-5.1,1.01-1.65.67-3.12,1.7-4.4,3.09-1.28,1.39-2.32,3.11-3.12,5.16-.79,2.06-1.19,4.47-1.19,7.24,0,2.4.28,4.61.86,6.63.57,2.02,1.49,3.76,2.75,5.23,1.26,1.47,2.87,2.61,4.82,3.42,1.96.82,4.32,1.22,7.09,1.22,2.12,0,3.96-.23,5.53-.67,1.57-.45,2.64-.84,3.21-1.16l-.73-3.43c-.57.29-1.49.63-2.75,1.04-1.26.41-2.97.61-5.13.61-3.91,0-6.77-1.04-8.56-3.12-1.79-2.08-2.75-5.05-2.87-8.92h22.19c.04-.29.07-.59.09-.92.02-.33.03-.65.03-.98,0-5.26-1.15-9.15-3.45-11.67-2.3-2.53-5.39-3.79-9.26-3.79M309.51,16.7c.08-1.39.36-2.71.83-3.97.47-1.26,1.12-2.37,1.95-3.33.83-.96,1.82-1.72,2.93-2.29,1.12-.57,2.4-.85,3.82-.85,2.69,0,4.77.92,6.24,2.75,1.46,1.83,2.24,4.4,2.32,7.7h-18.09Z"></path><path class="cls-2" d="M387.19,6.89c-.81-1.28-1.96-2.28-3.45-2.99-1.49-.71-3.44-1.07-5.84-1.07-1.47,0-2.8.14-4,.43-1.2.29-2.25.63-3.15,1.04-.9.41-1.64.81-2.23,1.19-.59.39-.99.66-1.2.82-1.79-2.32-4.68-3.48-8.68-3.48-3.02,0-5.47.2-7.36.61-1.9.41-3.44.77-4.62,1.1v30.5h3.97V7.29c.37-.16,1.21-.35,2.54-.55,1.32-.2,2.94-.31,4.86-.31,1.71,0,3.09.26,4.13.76,1.04.51,1.84,1.26,2.41,2.26.57,1,.95,2.26,1.13,3.79.19,1.53.28,3.33.28,5.41v16.38h3.97v-17.97c0-1.47-.09-2.86-.27-4.19-.19-1.32-.46-2.52-.83-3.58.2-.16.54-.41,1.01-.73.47-.33,1.07-.65,1.8-.98.73-.32,1.6-.6,2.6-.82,1-.23,2.11-.34,3.33-.34,1.63,0,2.96.26,3.97.76,1.02.51,1.8,1.26,2.35,2.26.55,1,.92,2.26,1.1,3.79.18,1.53.27,3.33.27,5.41v16.38h3.98v-17.66c0-2.12-.14-4.07-.43-5.87-.28-1.79-.83-3.33-1.65-4.62"></path><path class="cls-2" d="M417.45,2.7c-1.75,0-3.45.33-5.1,1.01-1.65.67-3.12,1.7-4.4,3.09-1.28,1.39-2.32,3.11-3.12,5.16-.79,2.06-1.19,4.47-1.19,7.24,0,2.4.28,4.61.86,6.63.57,2.02,1.49,3.76,2.75,5.23,1.26,1.47,2.87,2.61,4.82,3.42,1.96.82,4.32,1.22,7.09,1.22,2.12,0,3.96-.23,5.53-.67,1.57-.45,2.64-.84,3.21-1.16l-.73-3.43c-.57.29-1.49.63-2.75,1.04-1.26.41-2.97.61-5.13.61-3.91,0-6.77-1.04-8.56-3.12-1.79-2.08-2.75-5.05-2.87-8.92h22.19c.04-.29.07-.59.09-.92.02-.33.03-.65.03-.98,0-5.26-1.15-9.15-3.45-11.67-2.3-2.53-5.39-3.79-9.26-3.79M407.97,16.7c.08-1.39.36-2.71.83-3.97.47-1.26,1.12-2.37,1.95-3.33.83-.96,1.82-1.72,2.93-2.29,1.12-.57,2.4-.85,3.82-.85,2.69,0,4.77.92,6.24,2.75,1.46,1.83,2.24,4.4,2.32,7.7h-18.09Z"></path><path class="cls-2" d="M467.11,6.83c-.96-1.28-2.24-2.27-3.85-2.96-1.61-.69-3.62-1.04-6.02-1.04-2.89,0-5.34.2-7.33.61-2,.41-3.59.77-4.77,1.1v30.5h3.97V7.29c.41-.16,1.29-.35,2.66-.55,1.36-.2,2.99-.31,4.86-.31,1.75,0,3.21.21,4.37.64,1.16.43,2.1,1.13,2.81,2.11.71.98,1.22,2.24,1.53,3.79.3,1.55.45,3.45.45,5.68v16.38h3.98v-17.66c0-2.16-.2-4.13-.61-5.93-.41-1.79-1.09-3.33-2.05-4.61"></path><path class="cls-2" d="M506.37,9.73c-.41-1.43-1.06-2.66-1.96-3.7-.9-1.04-2.07-1.85-3.51-2.44-1.45-.59-3.21-.89-5.29-.89s-3.78.14-5.23.43c-1.45.28-2.52.59-3.21.92l.55,3.48c.53-.2,1.37-.47,2.51-.79,1.14-.33,2.88-.49,5.2-.49,1.63,0,2.94.25,3.94.76,1,.51,1.77,1.18,2.32,2.02.55.84.91,1.77,1.07,2.81.16,1.04.25,2.11.25,3.21v1.96c-.16-.08-.46-.17-.89-.28-.43-.1-.94-.2-1.52-.31-.59-.1-1.2-.18-1.84-.25-.63-.06-1.23-.09-1.8-.09-1.92,0-3.69.18-5.32.55-1.63.37-3.03.95-4.21,1.74-1.18.79-2.1,1.8-2.75,3.03-.65,1.22-.98,2.69-.98,4.4s.3,3.31.89,4.55c.59,1.24,1.41,2.26,2.45,3.06,1.04.79,2.26,1.38,3.67,1.74,1.4.37,2.94.55,4.61.55,1.31,0,2.58-.05,3.82-.15,1.24-.1,2.37-.23,3.39-.4,1.02-.16,1.91-.32,2.69-.46.78-.14,1.37-.28,1.77-.4V14.38c0-1.67-.2-3.22-.61-4.65M503.01,31.61c-.82.16-1.81.29-2.97.4-1.16.1-2.52.15-4.06.15-1.26,0-2.4-.11-3.39-.33-1-.22-1.85-.58-2.57-1.07-.71-.49-1.26-1.14-1.65-1.96-.39-.81-.58-1.81-.58-2.99,0-1.34.29-2.42.86-3.24.57-.81,1.3-1.46,2.2-1.93.9-.47,1.87-.77,2.93-.92,1.06-.14,2.08-.21,3.06-.21,1.71,0,3.06.11,4.03.33.98.23,1.69.44,2.14.64v11.13Z"></path><rect class="cls-2" x="248.57" y="42.72" width="90.13" height="3.84"></rect><rect class="cls-2" x="158.44" y="42.72" width="90.13" height="3.84"></rect><rect class="cls-2" x="338.7" y="42.72" width="90.12" height="3.84"></rect><rect class="cls-2" x="428.82" y="42.72" width="90.12" height="3.84"></rect><path class="cls-3" d="M126.5,88.62c1.56-2.96,2.91-6.05,3.97-9.27-37.74-7.99-76.29-5.25-114.92.15,1.05,3.17,2.37,6.21,3.91,9.12h107.04Z"></path><path class="cls-5" d="M125.5,30.48c-1.19-2.08-2.51-4.06-3.93-5.98C110.55,9.65,92.9,0,72.98,0,42.51,0,17.3,22.54,13.11,51.85c-.37,2.59-.57,5.23-.6,7.92,0,.24-.03.48-.03.73,0,3.43.3,6.79.86,10.07,24.24-1.32,48.35-4.21,71.5-10.3,13.43-9.87,29.89-14.25,44.25-22.29-1.03-2.59-2.22-5.1-3.59-7.49"></path><path class="cls-4" d="M132.52,49.88c-.43-2.44-1.02-4.82-1.73-7.15-.49-1.62-1.08-3.2-1.7-4.76-14.35,8.03-30.81,12.42-44.23,22.27-23.16,6.1-47.27,8.99-71.52,10.31.52,3.06,1.25,6.05,2.21,8.94,38.62-5.4,77.18-8.14,114.92-.15,1.95-5.93,3.01-12.27,3.01-18.86,0-3.62-.35-7.17-.96-10.62"></path><path class="cls-1" d="M69.52,78.06c28.67,0,55.13,1.68,76.44,4.53-16.62-5.72-43.69-9.45-74.28-9.45s-54.9,3.36-71.68,8.6c20.01-2.32,43.87-3.67,69.52-3.67"></path><path class="cls-2" d="M146.69,33.15c2.12-1,2.05-2.35,2-2.88-.13-1.49-16,2.61-20.42,3.64-.12.03-1.1.55-1.21.6-13.43,5.24-26.13,7.34-26.72,7.44-.01,0-.03,0-.04.01-7.55,2.5-19.91,14.64-23.46,18.23-.7.71-1.52,1.3-2.44,1.7-7.5,3.25-13.03.77-13.03.77-.78-.38-1.55-.74-2.32-1.09-28.08-12.96-42.73-6.98-44.51-6.16-.69.32-1.76.42-1.86.89-.07.32-.27.78-.33,1.08-.03.17.1.33.27.33,1.17.01,2.42-.2,2.42-.2,15.05-2.51,30.64,5.77,38.9,11.18,3.59,2.35,5.8,4.16,5.98,4.31,0,0,0,0,0,0,1.15,1.25.66,3.32,1.65,4.3,3.34,3.35,6.31,4.88,8.73,5.52,3.29.86,5.53.03,6.2-.29.19-.09.34-.25.44-.44,14.4-27.58,39.38-34.85,39.51-34.89,0,0,0,0,0,0,5.72-1.98,10.47-4.38,14.4-6.88.13-.08,15.94-7.03,15.86-7.16"></path><path class="cls-2" d="M170.34,73.61c0-2.46.37-4.63,1.1-6.51.73-1.88,1.73-3.45,2.99-4.71,1.26-1.26,2.72-2.2,4.4-2.84,1.67-.64,3.45-.95,5.33-.95s3.6.32,5.25.95c1.64.64,3.09,1.58,4.34,2.84,1.24,1.26,2.23,2.83,2.97,4.71.73,1.88,1.1,4.05,1.1,6.51s-.37,4.63-1.1,6.51c-.73,1.88-1.72,3.45-2.97,4.71-1.25,1.26-2.69,2.21-4.34,2.84-1.65.64-3.4.95-5.25.95s-3.66-.32-5.33-.95c-1.67-.64-3.14-1.58-4.4-2.84-1.26-1.26-2.25-2.83-2.99-4.71-.73-1.88-1.1-4.05-1.1-6.51ZM174.57,73.61c0,1.74.22,3.33.66,4.75.44,1.42,1.07,2.63,1.89,3.63.82,1,1.81,1.76,2.99,2.3,1.18.54,2.5.81,3.96.81s2.78-.27,3.94-.81c1.16-.54,2.15-1.31,2.97-2.3s1.44-2.2,1.89-3.63c.44-1.42.66-3.01.66-4.75s-.22-3.33-.66-4.75c-.44-1.42-1.07-2.63-1.89-3.63-.82-1-1.81-1.76-2.97-2.3s-2.48-.81-3.94-.81-2.79.27-3.96.81c-1.18.54-2.17,1.31-2.99,2.3-.82,1-1.45,2.21-1.89,3.63-.44,1.42-.66,3.01-.66,4.75Z"></path><path class="cls-2" d="M210.04,85.14c4.2,0,6.31-1.44,6.31-4.31,0-.88-.19-1.64-.56-2.26s-.88-1.16-1.51-1.62c-.64-.46-1.36-.85-2.18-1.18-.82-.33-1.68-.66-2.59-1-1.05-.36-2.05-.77-2.99-1.22-.94-.46-1.76-1-2.45-1.62s-1.24-1.36-1.64-2.22-.6-1.89-.6-3.11c0-2.52.86-4.48,2.57-5.89,1.71-1.41,4.08-2.12,7.09-2.12,1.74,0,3.32.19,4.75.56,1.42.37,2.47.78,3.13,1.22l-1.29,3.28c-.58-.36-1.45-.71-2.59-1.06s-2.48-.52-4-.52c-.78,0-1.49.08-2.16.25-.66.17-1.25.41-1.74.75-.5.33-.89.75-1.18,1.26-.29.51-.44,1.11-.44,1.8,0,.77.15,1.42.46,1.95.3.53.73.99,1.29,1.39.55.4,1.2.77,1.93,1.1.73.33,1.54.66,2.43,1,1.24.5,2.38,1,3.42,1.49,1.04.5,1.94,1.09,2.7,1.78.76.69,1.35,1.51,1.77,2.47.41.95.62,2.11.62,3.46,0,2.52-.92,4.45-2.76,5.81s-4.43,2.03-7.78,2.03c-1.13,0-2.18-.08-3.13-.23-.96-.15-1.81-.33-2.55-.54-.75-.21-1.39-.43-1.93-.66-.54-.23-.96-.43-1.27-.6l1.2-3.32c.64.36,1.61.76,2.91,1.2,1.3.44,2.89.66,4.77.66Z"></path><path class="cls-2" d="M245.14,88c-.61-1.02-1.31-2.17-2.1-3.44-.79-1.27-1.64-2.59-2.55-3.96-.91-1.37-1.86-2.76-2.84-4.17-.98-1.41-1.96-2.77-2.92-4.09-.97-1.31-1.91-2.55-2.82-3.71-.91-1.16-1.76-2.18-2.53-3.07v22.44h-3.94v-28.75h3.19c1.3,1.38,2.69,2.99,4.17,4.83,1.48,1.84,2.95,3.73,4.4,5.68,1.45,1.95,2.82,3.86,4.11,5.75s2.37,3.55,3.26,5.02v-21.28h3.94v28.75h-3.36Z"></path><path class="cls-2" d="M254.47,73.61c0-2.46.37-4.63,1.1-6.51.73-1.88,1.73-3.45,2.99-4.71,1.26-1.26,2.72-2.2,4.4-2.84,1.67-.64,3.45-.95,5.33-.95s3.6.32,5.25.95c1.64.64,3.09,1.58,4.34,2.84,1.24,1.26,2.23,2.83,2.97,4.71.73,1.88,1.1,4.05,1.1,6.51s-.37,4.63-1.1,6.51c-.73,1.88-1.72,3.45-2.97,4.71-1.25,1.26-2.69,2.21-4.34,2.84-1.65.64-3.39.95-5.25.95s-3.66-.32-5.33-.95c-1.67-.64-3.14-1.58-4.4-2.84-1.26-1.26-2.25-2.83-2.99-4.71-.73-1.88-1.1-4.05-1.1-6.51ZM258.7,73.61c0,1.74.22,3.33.66,4.75.44,1.42,1.07,2.63,1.89,3.63.82,1,1.81,1.76,2.99,2.3,1.18.54,2.5.81,3.96.81s2.78-.27,3.94-.81c1.16-.54,2.15-1.31,2.97-2.3.82-1,1.44-2.2,1.89-3.63.44-1.42.66-3.01.66-4.75s-.22-3.33-.66-4.75c-.44-1.42-1.07-2.63-1.89-3.63-.82-1-1.81-1.76-2.97-2.3-1.16-.54-2.48-.81-3.94-.81s-2.79.27-3.96.81c-1.18.54-2.17,1.31-2.99,2.3-.82,1-1.45,2.21-1.89,3.63-.44,1.42-.66,3.01-.66,4.75Z"></path><path class="cls-2" d="M310.43,59.25c-1.05,3.04-2.05,5.86-3.01,8.44-.96,2.59-1.89,5.04-2.8,7.36-.91,2.32-1.82,4.54-2.72,6.66-.9,2.12-1.82,4.21-2.76,6.28h-3.78c-.94-2.07-1.86-4.17-2.76-6.28-.9-2.12-1.81-4.34-2.74-6.66s-1.87-4.78-2.84-7.36c-.97-2.59-1.97-5.4-2.99-8.44h4.44c1.49,4.37,2.96,8.57,4.4,12.61,1.44,4.04,2.92,7.83,4.44,11.37,1.52-3.51,3-7.29,4.44-11.35,1.44-4.05,2.89-8.26,4.36-12.63h4.32Z"></path><path class="cls-2" d="M334.12,88c-.61-1.02-1.31-2.17-2.09-3.44-.79-1.27-1.64-2.59-2.55-3.96-.91-1.37-1.86-2.76-2.84-4.17-.98-1.41-1.96-2.77-2.92-4.09-.97-1.31-1.91-2.55-2.82-3.71s-1.76-2.18-2.53-3.07v22.44h-3.94v-28.75h3.19c1.3,1.38,2.69,2.99,4.17,4.83,1.48,1.84,2.95,3.73,4.4,5.68,1.45,1.95,2.82,3.86,4.11,5.75s2.37,3.55,3.25,5.02v-21.28h3.94v28.75h-3.36Z"></path><path class="cls-2" d="M363.82,88c-.47-1.24-.91-2.47-1.33-3.67-.42-1.2-.85-2.43-1.29-3.67h-13.03l-2.61,7.34h-4.19c1.11-3.04,2.14-5.86,3.11-8.44.97-2.59,1.91-5.04,2.84-7.36.93-2.32,1.85-4.54,2.76-6.66s1.87-4.21,2.86-6.28h3.69c1,2.07,1.95,4.17,2.86,6.28.91,2.12,1.83,4.34,2.76,6.66.93,2.32,1.87,4.78,2.84,7.36.97,2.59,2.01,5.4,3.11,8.44h-4.4ZM360.05,77.34c-.89-2.41-1.76-4.74-2.63-6.99-.87-2.25-1.78-4.42-2.72-6.49-.97,2.07-1.89,4.24-2.76,6.49-.87,2.25-1.74,4.58-2.59,6.99h10.7Z"></path><path class="cls-2" d="M388.38,85.14c4.2,0,6.31-1.44,6.31-4.31,0-.88-.19-1.64-.56-2.26-.37-.62-.88-1.16-1.51-1.62-.64-.46-1.36-.85-2.18-1.18-.82-.33-1.68-.66-2.59-1-1.05-.36-2.05-.77-2.99-1.22-.94-.46-1.76-1-2.45-1.62-.69-.62-1.24-1.36-1.64-2.22-.4-.86-.6-1.89-.6-3.11,0-2.52.86-4.48,2.57-5.89,1.71-1.41,4.08-2.12,7.09-2.12,1.74,0,3.33.19,4.75.56s2.47.78,3.13,1.22l-1.29,3.28c-.58-.36-1.45-.71-2.59-1.06-1.15-.35-2.48-.52-4-.52-.78,0-1.49.08-2.16.25-.66.17-1.25.41-1.74.75-.5.33-.89.75-1.18,1.26-.29.51-.43,1.11-.43,1.8,0,.77.15,1.42.45,1.95.31.53.73.99,1.29,1.39.55.4,1.2.77,1.93,1.1.73.33,1.54.66,2.43,1,1.24.5,2.38,1,3.42,1.49,1.04.5,1.93,1.09,2.7,1.78.76.69,1.35,1.51,1.76,2.47.41.95.62,2.11.62,3.46,0,2.52-.92,4.45-2.76,5.81-1.84,1.35-4.43,2.03-7.78,2.03-1.14,0-2.18-.08-3.13-.23-.96-.15-1.81-.33-2.55-.54-.74-.21-1.39-.43-1.93-.66-.54-.23-.96-.43-1.26-.6l1.2-3.32c.64.36,1.6.76,2.9,1.2,1.3.44,2.89.66,4.77.66ZM383.94,51.29l1.62-1.83,4.02,3.65,4.02-3.65,1.62,1.83-5.64,5.93-5.64-5.93Z"></path><path class="cls-2" d="M425.05,59.25c-.86.94-1.83,1.99-2.91,3.13-1.08,1.15-2.2,2.32-3.38,3.53s-2.34,2.39-3.51,3.55c-1.16,1.16-2.25,2.24-3.28,3.24,1.19.83,2.45,1.85,3.78,3.07,1.33,1.22,2.63,2.52,3.9,3.9s2.47,2.79,3.59,4.23c1.12,1.44,2.05,2.81,2.8,4.11h-4.73c-.83-1.3-1.78-2.61-2.86-3.92-1.08-1.31-2.22-2.57-3.42-3.77-1.2-1.2-2.42-2.32-3.65-3.34-1.23-1.02-2.43-1.89-3.59-2.61v13.65h-4.02v-28.75h4.02v12.69c.97-.91,2.03-1.94,3.19-3.09,1.16-1.15,2.31-2.3,3.44-3.46,1.13-1.16,2.2-2.27,3.21-3.34,1.01-1.06,1.86-2,2.55-2.8h4.85Z"></path><path class="cls-2" d="M427.25,73.61c0-2.46.37-4.63,1.1-6.51.73-1.88,1.73-3.45,2.99-4.71,1.26-1.26,2.72-2.2,4.4-2.84,1.67-.64,3.45-.95,5.33-.95s3.6.32,5.25.95c1.65.64,3.09,1.58,4.33,2.84,1.25,1.26,2.23,2.83,2.97,4.71.73,1.88,1.1,4.05,1.1,6.51s-.37,4.63-1.1,6.51c-.73,1.88-1.72,3.45-2.97,4.71-1.24,1.26-2.69,2.21-4.33,2.84-1.65.64-3.4.95-5.25.95s-3.66-.32-5.33-.95c-1.67-.64-3.14-1.58-4.4-2.84-1.26-1.26-2.25-2.83-2.99-4.71-.73-1.88-1.1-4.05-1.1-6.51ZM431.48,73.61c0,1.74.22,3.33.66,4.75.44,1.42,1.07,2.63,1.89,3.63s1.81,1.76,2.99,2.3c1.17.54,2.5.81,3.96.81s2.78-.27,3.94-.81c1.16-.54,2.15-1.31,2.97-2.3.82-1,1.45-2.2,1.89-3.63.44-1.42.66-3.01.66-4.75s-.22-3.33-.66-4.75c-.44-1.42-1.07-2.63-1.89-3.63-.82-1-1.81-1.76-2.97-2.3-1.16-.54-2.47-.81-3.94-.81s-2.79.27-3.96.81c-1.18.54-2.17,1.31-2.99,2.3-.82,1-1.45,2.21-1.89,3.63-.44,1.42-.66,3.01-.66,4.75Z"></path><path class="cls-2" d="M477.99,84.52v3.48h-17.3v-28.75h4.02v25.26h13.27Z"></path><path class="cls-2" d="M502.59,88c-.47-1.24-.91-2.47-1.33-3.67-.42-1.2-.84-2.43-1.29-3.67h-13.03l-2.61,7.34h-4.19c1.11-3.04,2.14-5.86,3.11-8.44.97-2.59,1.91-5.04,2.84-7.36.93-2.32,1.85-4.54,2.76-6.66.91-2.12,1.87-4.21,2.86-6.28h3.69c1,2.07,1.95,4.17,2.86,6.28.91,2.12,1.83,4.34,2.76,6.66.93,2.32,1.87,4.78,2.84,7.36.97,2.59,2.01,5.4,3.11,8.44h-4.4ZM498.81,77.34c-.88-2.41-1.76-4.74-2.63-6.99-.87-2.25-1.78-4.42-2.72-6.49-.97,2.07-1.89,4.24-2.76,6.49-.87,2.25-1.74,4.58-2.59,6.99h10.7Z"></path></g></g></svg> 