<?xml version="1.0" encoding="UTF-8"?><svg id="Layer_2" xmlns="http://www.w3.org/2000/svg" viewBox="0 0 170.69 229.18"><defs><style>.cls-1{fill:#fff;}</style></defs><g id="Layer_1-2"><path class="cls-1" d="M82.29,229.18c-13.83,0-25.84-1.53-36.04-4.59s-18.65-7.48-25.33-13.26c-6.69-5.78-11.73-12.75-15.13-20.91-3.4-8.16-5.33-17.11-5.78-26.86l28.9-8.16c.22,9.52,1.92,17.34,5.1,23.46,3.17,6.12,7.42,10.94,12.75,14.45,5.32,3.52,11.1,6.01,17.34,7.48,6.23,1.48,12.41,2.21,18.53,2.21,10.42,0,19.95-1.41,28.56-4.25,8.61-2.83,15.47-7.42,20.57-13.77,5.1-6.34,7.65-14.62,7.65-24.82,0-12.69-3.8-22.67-11.39-29.92-7.6-7.25-18.25-12.29-31.96-15.13-13.72-2.83-29.98-3.91-48.79-3.23v-20.74L126.15,28.56v-2.38l-117.31.34V0h148.93v32.98l-73.45,59.17v2.38c20.85,0,37.57,2.84,50.15,8.5,12.58,5.67,21.76,13.43,27.54,23.29,5.78,9.86,8.67,21.14,8.67,33.83,0,13.83-3.29,25.96-9.86,36.38-6.58,10.43-16.38,18.48-29.41,24.14-13.04,5.66-29.41,8.5-49.13,8.5Z"/></g></svg>