<?xml version="1.0" encoding="UTF-8"?>
<svg id="Layer_2" data-name="Layer 2" xmlns="http://www.w3.org/2000/svg" viewBox="0 0 670.55 464.84">
  <defs>
    <style>
      .cls-1 {
        fill: #314468;
      }
    </style>
  </defs>
  <g id="Layer_1-2" data-name="Layer 1">
    <path class="cls-1" d="M546.31,13.02c8.63-4.03,8.34-9.56,8.19-11.72-.5-6.04-65.12,10.64-83.09,14.81-.5,0-4.46,2.23-4.96,2.44-35.18,13.53-71.57,23.66-108.68,30.26h0c-30.76,10.21-81.01,59.37-95.45,74.25-2.83,3-6.19,5.44-9.92,7.19-16.57,8.02-35.65,9.13-53.05,3.09l-9.42-4.46C75.66,76.2,16.07,100.57,8.81,103.87c-2.8,1.29-7.19,1.73-7.55,3.59-.36,1.87-1.22,2.88-1.22,4.1-.16.57.18,1.17.75,1.33.11.03.22.04.33.04,3.32,0,6.64-.27,9.92-.79,61.24-10.21,124.64,23.5,158.13,45.5,8.39,5.4,16.5,11.23,24.29,17.47h0c4.67,5.1,2.66,13.51,6.68,17.54,9.6,10.54,21.87,18.29,35.51,22.43,8.26,2.55,17.16,2.14,25.16-1.15.79-.37,1.43-1,1.8-1.8,33.59-66.05,91.09-116.82,160.79-141.96h0c20.56-6.97,40.23-16.36,58.58-27.96.5-.36,64.69-28.75,64.69-29.18"/>
    <path class="cls-1" d="M668.25,220.79c2.4-1.12,2.32-2.66,2.28-3.27-.14-1.68-18.15,2.96-23.16,4.13-.14,0-1.24.62-1.38.68-9.8,3.77-19.95,6.59-30.29,8.43h0c-8.57,2.84-22.58,16.55-26.6,20.69-.79.84-1.73,1.51-2.76,2-4.62,2.23-9.94,2.54-14.78.86l-2.62-1.24c-31.85-14.68-48.46-7.89-50.48-6.97-.78.36-2,.48-2.1,1-.1.52-.34.8-.34,1.14-.04.16.05.33.21.37.03,0,.06.01.09.01.93,0,1.85-.08,2.76-.22,17.07-2.84,34.74,6.55,44.07,12.68,2.34,1.51,4.6,3.13,6.77,4.87h0c1.3,1.42.74,3.77,1.86,4.89,2.67,2.94,6.09,5.1,9.9,6.25,2.3.71,4.78.6,7.01-.32.22-.1.4-.28.5-.5,9.36-18.41,25.39-32.56,44.81-39.56h0c5.73-1.94,11.21-4.56,16.33-7.79.14-.1,18.03-8.01,18.03-8.13"/>
    <path class="cls-1" d="M415.69,388.48c2.49-1.16,2.41-2.76,2.37-3.38-.15-1.74-18.8,3.07-23.98,4.27-.15,0-1.29.64-1.43.71-10.15,3.91-20.66,6.83-31.37,8.73h0c-8.88,2.95-23.38,17.14-27.55,21.43-.82.86-1.79,1.57-2.86,2.07-4.78,2.31-10.29,2.63-15.31.89l-2.72-1.29c-32.99-15.21-50.19-8.17-52.28-7.22-.81.37-2.07.5-2.18,1.04-.1.54-.35.83-.35,1.18-.05.17.05.34.22.38.03,0,.06.01.09.01.96,0,1.92-.08,2.86-.23,17.68-2.95,35.98,6.78,45.64,13.13,2.42,1.56,4.76,3.24,7.01,5.04h0c1.35,1.47.77,3.9,1.93,5.06,2.77,3.04,6.31,5.28,10.25,6.47,2.39.74,4.95.62,7.26-.33.23-.11.41-.29.52-.52,9.69-19.07,26.29-33.72,46.41-40.98h0c5.94-2.01,11.61-4.72,16.91-8.07.15-.1,18.67-8.3,18.67-8.42"/>
    <path class="cls-1" d="M450.89,448.45c.69-.32.67-.77.66-.94-.04-.49-5.24.86-6.68,1.19-.04,0-.36.18-.4.2-2.83,1.09-5.76,1.9-8.74,2.43h0c-2.47.82-6.52,4.78-7.68,5.97-.23.24-.5.44-.8.58-1.33.64-2.87.73-4.27.25l-.76-.36c-9.19-4.24-13.99-2.28-14.57-2.01-.23.1-.58.14-.61.29-.03.15-.1.23-.1.33-.01.05.01.09.06.11,0,0,.02,0,.03,0,.27,0,.53-.02.8-.06,4.93-.82,10.03,1.89,12.72,3.66.67.43,1.33.9,1.95,1.41h0c.38.41.21,1.09.54,1.41.77.85,1.76,1.47,2.86,1.8.66.21,1.38.17,2.02-.09.06-.03.12-.08.14-.14,2.7-5.31,7.33-9.4,12.93-11.42h0c1.65-.56,3.24-1.32,4.71-2.25.04-.03,5.2-2.31,5.2-2.35"/>
  </g>
</svg>