<?xml version="1.0" encoding="UTF-8"?>
<svg id="Layer_2" data-name="Layer 2" xmlns="http://www.w3.org/2000/svg" viewBox="0 0 406.27 79.87">
  <defs>
    <style>
      .cls-1 {
        fill: #df1f20;
      }

      .cls-2 {
        fill: #369f37;
      }

      .cls-3 {
        fill: #f8b918;
      }

      .cls-4 {
        fill: #fff;
      }

      .cls-5 {
        fill: #385ca5;
      }
    </style>
  </defs>
  <g id="Layer_1-2" data-name="Layer 1">
    <path d="M169.57,21.12c-.61-.51-1.31-.94-2.11-1.3-.8-.36-1.64-.72-2.51-1.06-.84-.35-1.59-.67-2.25-.96-.66-.29-1.21-.6-1.66-.94-.45-.34-.79-.72-1.03-1.16-.23-.44-.35-.96-.35-1.57s.13-1.13.39-1.55c.26-.42.61-.77,1.05-1.05.44-.28.94-.48,1.51-.61.57-.13,1.17-.2,1.81-.2,1.6,0,2.81.15,3.64.44.83.29,1.42.52,1.77.7l.65-2.53c-.41-.2-1.11-.44-2.11-.7-1-.26-2.28-.39-3.82-.39-2.41,0-4.31.57-5.69,1.7-1.38,1.13-2.07,2.62-2.07,4.45,0,.96.18,1.77.52,2.44.35.67.81,1.24,1.4,1.72.58.48,1.25.9,2.01,1.26.76.36,1.55.72,2.4,1.07,1.05.44,1.92.81,2.64,1.13.71.32,1.29.65,1.72,1,.44.35.75.74.94,1.18.19.44.28.96.28,1.57,0,1.28-.53,2.19-1.59,2.72-1.06.54-2.41.81-4.03.81-.9,0-1.69-.06-2.38-.18-.68-.11-1.27-.25-1.76-.41-.5-.16-.89-.31-1.18-.44-.29-.13-.48-.22-.57-.28l-.74,2.57c.35.17,1.05.43,2.09.76,1.05.33,2.56.5,4.53.5,2.65,0,4.73-.52,6.26-1.57,1.53-1.05,2.29-2.59,2.29-4.62,0-1.08-.19-1.97-.57-2.68-.38-.71-.87-1.32-1.48-1.83"/>
    <path d="M194.6,10.61c-.64-.74-1.48-1.32-2.51-1.74-1.03-.42-2.29-.63-3.77-.63s-2.7.1-3.73.3c-1.03.2-1.8.42-2.29.65l.39,2.48c.38-.15.97-.33,1.79-.57.81-.23,2.05-.35,3.71-.35,1.16,0,2.1.18,2.81.54.71.37,1.26.84,1.66,1.44.39.6.65,1.26.76,2.01.11.74.17,1.5.17,2.29v1.4c-.12-.06-.33-.12-.63-.2-.31-.07-.67-.15-1.09-.22-.42-.07-.86-.13-1.31-.17-.45-.04-.88-.06-1.28-.06-1.37,0-2.63.13-3.79.39-1.16.26-2.17.68-3.01,1.24-.84.57-1.5,1.29-1.96,2.16-.46.87-.7,1.92-.7,3.14s.21,2.36.63,3.25c.42.89,1,1.61,1.74,2.18.74.57,1.61.98,2.62,1.24,1,.26,2.1.39,3.29.39.93,0,1.84-.04,2.73-.11.89-.07,1.69-.17,2.42-.28.73-.12,1.37-.23,1.92-.33.55-.1.97-.2,1.26-.28v-14.21c0-1.19-.15-2.3-.44-3.31-.29-1.02-.76-1.9-1.39-2.64M193.6,28.86c-.58.12-1.29.21-2.11.28-.83.07-1.8.11-2.9.11-.9,0-1.71-.08-2.42-.24-.71-.16-1.32-.41-1.83-.76-.51-.35-.9-.81-1.18-1.4-.28-.58-.41-1.29-.41-2.14,0-.96.2-1.73.61-2.31.41-.58.93-1.04,1.57-1.37.64-.33,1.34-.55,2.09-.65.76-.1,1.48-.15,2.18-.15,1.22,0,2.18.08,2.88.24.7.16,1.2.31,1.53.46v7.94Z"/>
    <path d="M220.25,13.71c-.51,1.76-1.06,3.5-1.66,5.23-.6,1.73-1.22,3.4-1.86,5.01-.64,1.61-1.27,3.05-1.88,4.3-.61-1.25-1.24-2.68-1.88-4.3-.64-1.61-1.26-3.28-1.86-5.01-.6-1.73-1.15-3.47-1.66-5.23-.51-1.76-.94-3.41-1.29-4.95h-3.01c.53,2.06,1.11,4.1,1.76,6.1.64,2.01,1.32,3.97,2.04,5.89.72,1.92,1.45,3.77,2.21,5.54.76,1.77,1.52,3.44,2.28,5.01h2.64c.73-1.57,1.48-3.24,2.26-5.01.78-1.77,1.52-3.62,2.24-5.54.72-1.92,1.4-3.88,2.04-5.89.64-2.01,1.23-4.04,1.75-6.1h-2.84c-.35,1.54-.78,3.19-1.29,4.95"/>
    <path d="M240.99,8.32c-1.83,0-3.39.17-4.67.5-1.28.33-2.28.66-3.01.98v21.49h2.83V11.55c.23-.12.72-.26,1.46-.44.74-.17,1.72-.26,2.94-.26s2.1.06,2.81.2c.71.13,1.18.25,1.42.37l.57-2.44c-.32-.15-.89-.29-1.72-.44-.83-.15-1.71-.22-2.64-.22"/>
    <path d="M262.49,8.24c-1.25,0-2.46.24-3.64.72-1.18.48-2.22,1.21-3.14,2.2-.92.99-1.66,2.22-2.22,3.68-.57,1.47-.85,3.19-.85,5.17,0,1.71.2,3.29.61,4.73.41,1.44,1.06,2.68,1.97,3.73.9,1.05,2.05,1.86,3.44,2.44,1.4.58,3.08.87,5.06.87,1.51,0,2.83-.16,3.95-.48,1.12-.32,1.88-.6,2.29-.83l-.52-2.44c-.41.21-1.06.45-1.96.74-.9.29-2.12.44-3.66.44-2.79,0-4.83-.74-6.11-2.22-1.28-1.48-1.96-3.6-2.05-6.36h15.83c.03-.2.05-.42.06-.66.02-.23.02-.46.02-.7,0-3.75-.82-6.52-2.46-8.33-1.64-1.8-3.84-2.7-6.61-2.7M255.73,18.22c.06-.99.25-1.93.59-2.84.33-.9.8-1.69,1.39-2.38.59-.68,1.3-1.23,2.09-1.64.8-.41,1.71-.61,2.73-.61,1.92,0,3.4.65,4.45,1.96,1.04,1.31,1.6,3.14,1.66,5.49h-12.91Z"/>
    <path d="M311.15,11.22c-.58-.92-1.4-1.63-2.46-2.14-1.06-.51-2.45-.76-4.17-.76-1.05,0-2,.1-2.86.3-.86.2-1.61.45-2.25.74-.64.29-1.17.57-1.59.85-.42.28-.71.47-.85.59-1.28-1.66-3.34-2.48-6.19-2.48-2.15,0-3.9.14-5.25.44-1.35.29-2.45.55-3.29.78v21.76h2.83V11.51c.26-.12.86-.25,1.81-.39.94-.15,2.1-.22,3.47-.22,1.22,0,2.2.18,2.95.54.74.37,1.31.9,1.72,1.61.41.71.68,1.61.81,2.7.13,1.09.2,2.38.2,3.86v11.69h2.83v-12.82c0-1.05-.06-2.04-.19-2.99-.13-.94-.33-1.8-.59-2.55.15-.12.39-.29.72-.52.33-.23.76-.46,1.29-.7.52-.23,1.14-.43,1.85-.59.71-.16,1.5-.24,2.38-.24,1.16,0,2.11.18,2.83.54.73.37,1.29.9,1.68,1.61.39.71.65,1.61.79,2.7.13,1.09.19,2.38.19,3.86v11.69h2.84v-12.6c0-1.51-.1-2.91-.31-4.18-.2-1.28-.59-2.38-1.18-3.29"/>
    <path d="M332.73,8.24c-1.25,0-2.46.24-3.64.72-1.18.48-2.22,1.21-3.14,2.2-.92.99-1.66,2.22-2.22,3.68-.57,1.47-.85,3.19-.85,5.17,0,1.71.2,3.29.61,4.73.4,1.44,1.06,2.68,1.96,3.73.9,1.05,2.05,1.86,3.44,2.44,1.4.58,3.08.87,5.06.87,1.51,0,2.83-.16,3.95-.48,1.12-.32,1.88-.6,2.29-.83l-.52-2.44c-.41.21-1.06.45-1.96.74-.9.29-2.12.44-3.66.44-2.79,0-4.83-.74-6.11-2.22-1.28-1.48-1.96-3.6-2.05-6.36h15.83c.03-.2.05-.42.06-.66.02-.23.02-.46.02-.7,0-3.75-.82-6.52-2.46-8.33-1.64-1.8-3.84-2.7-6.61-2.7M325.97,18.22c.06-.99.25-1.93.59-2.84.33-.9.8-1.69,1.39-2.38.59-.68,1.3-1.23,2.09-1.64.8-.41,1.71-.61,2.73-.61,1.92,0,3.4.65,4.45,1.96,1.04,1.31,1.6,3.14,1.66,5.49h-12.91Z"/>
    <path d="M368.16,11.18c-.68-.91-1.6-1.62-2.75-2.11-1.15-.5-2.58-.74-4.29-.74-2.06,0-3.81.14-5.23.44-1.43.29-2.56.55-3.4.78v21.76h2.83V11.51c.29-.12.92-.25,1.9-.39.97-.15,2.13-.22,3.47-.22,1.25,0,2.29.15,3.12.46.83.31,1.5.81,2.01,1.5.51.7.87,1.6,1.09,2.7.22,1.1.32,2.46.32,4.06v11.69h2.84v-12.6c0-1.54-.15-2.95-.44-4.23-.29-1.28-.78-2.38-1.46-3.29"/>
    <path d="M396.17,13.25c-.29-1.02-.76-1.9-1.4-2.64-.64-.74-1.48-1.32-2.51-1.74-1.03-.42-2.29-.63-3.77-.63s-2.7.1-3.73.3c-1.03.2-1.8.42-2.29.65l.39,2.48c.38-.15.97-.33,1.79-.57.82-.23,2.05-.35,3.71-.35,1.16,0,2.1.18,2.81.54.71.37,1.26.84,1.65,1.44.39.6.65,1.26.76,2.01.12.74.18,1.5.18,2.29v1.4c-.12-.06-.33-.12-.63-.2-.31-.07-.67-.15-1.09-.22-.42-.07-.86-.13-1.31-.17-.45-.04-.88-.06-1.28-.06-1.37,0-2.63.13-3.8.39-1.16.26-2.16.68-3.01,1.24-.84.57-1.5,1.29-1.96,2.16-.47.87-.7,1.92-.7,3.14s.21,2.36.63,3.25c.42.89,1,1.61,1.75,2.18.74.57,1.61.98,2.62,1.24,1,.26,2.1.39,3.29.39.93,0,1.84-.04,2.73-.11.89-.07,1.69-.17,2.42-.28.73-.12,1.37-.23,1.92-.33.55-.1.97-.2,1.26-.28v-14.21c0-1.19-.15-2.3-.43-3.31M393.77,28.86c-.58.12-1.29.21-2.12.28-.83.07-1.8.11-2.9.11-.9,0-1.71-.08-2.42-.24-.72-.16-1.32-.41-1.83-.76-.51-.35-.9-.81-1.18-1.4-.28-.58-.42-1.29-.42-2.14,0-.96.21-1.73.61-2.31.4-.58.93-1.04,1.57-1.37.64-.33,1.34-.55,2.09-.65.76-.1,1.48-.15,2.18-.15,1.22,0,2.18.08,2.88.24.7.16,1.21.31,1.53.46v7.94Z"/>
    <path d="M166.45,72.53c-.38.12-1,.24-1.85.37-.86.13-1.9.2-3.12.2-1.72,0-3.21-.29-4.47-.87-1.26-.58-2.33-1.4-3.18-2.46-.86-1.06-1.5-2.33-1.92-3.81-.42-1.48-.63-3.13-.63-4.93s.25-3.54.74-5.04c.49-1.5,1.18-2.77,2.07-3.82.89-1.05,1.96-1.85,3.23-2.4,1.26-.55,2.67-.83,4.21-.83,1.45,0,2.88.18,4.27.55,1.4.36,2.52.82,3.36,1.37l1.35-3.53c-.18-.11-.5-.29-.98-.52-.48-.23-1.1-.47-1.85-.7-.76-.23-1.67-.44-2.72-.61-1.06-.17-2.27-.26-3.64-.26-2,0-3.89.35-5.64,1.05-1.76.7-3.29,1.71-4.6,3.05-1.31,1.34-2.35,2.99-3.12,4.95-.77,1.96-1.16,4.21-1.16,6.74s.34,4.77,1.02,6.71c.68,1.95,1.65,3.59,2.9,4.93,1.25,1.34,2.75,2.36,4.49,3.05,1.74.7,3.68,1.05,5.8,1.05,1.05,0,2.08-.05,3.1-.15,1.02-.1,1.95-.23,2.81-.37.86-.14,1.61-.29,2.27-.44.65-.15,1.16-.28,1.5-.39v-14.13h-4.23v11.25Z"/>
    <rect x="181.67" y="45.93" width="4.23" height="30.22"/>
    <path d="M223.18,45.93c-.78,1.28-1.63,2.79-2.53,4.53-.9,1.74-1.8,3.57-2.7,5.47-.9,1.9-1.77,3.81-2.62,5.71-.85,1.91-1.61,3.64-2.31,5.21-.7-1.57-1.47-3.3-2.31-5.21-.84-1.9-1.72-3.81-2.62-5.71-.9-1.9-1.8-3.73-2.7-5.47-.9-1.74-1.74-3.26-2.53-4.53h-3.71c-.26,2.18-.5,4.49-.72,6.93-.22,2.44-.42,4.95-.61,7.52-.19,2.57-.36,5.19-.5,7.85-.15,2.66-.28,5.3-.39,7.91h4.14c.14-4.07.32-8.1.52-12.1.2-4,.46-7.71.79-11.14.29.5.67,1.21,1.15,2.14.48.93,1,1.98,1.55,3.16.55,1.18,1.14,2.43,1.77,3.75.63,1.32,1.21,2.61,1.77,3.86.55,1.25,1.07,2.41,1.55,3.49.48,1.08.86,1.96,1.16,2.66h3.4c.29-.7.67-1.58,1.16-2.66.48-1.07.99-2.24,1.55-3.49.55-1.25,1.14-2.54,1.77-3.86.62-1.32,1.21-2.57,1.76-3.75.55-1.18,1.07-2.23,1.55-3.16.48-.93.87-1.64,1.16-2.14.32,3.43.58,7.14.79,11.14.2,4,.38,8.03.52,12.1h4.14c-.49-10.41-1.24-20.48-2.22-30.22h-3.71Z"/>
    <path d="M260.2,68.3c-.93-1.54-2.07-3.3-3.42-5.28-1.35-1.98-2.79-3.99-4.32-6.04-1.53-2.05-3.07-4.04-4.62-5.97-1.56-1.93-3.02-3.63-4.38-5.08h-3.36v30.22h4.14v-23.59c.81.93,1.7,2.01,2.66,3.23.96,1.22,1.95,2.52,2.97,3.9,1.02,1.38,2.04,2.81,3.07,4.29,1.03,1.48,2.03,2.94,2.99,4.38.96,1.44,1.85,2.83,2.68,4.16.83,1.34,1.56,2.54,2.2,3.62h3.53v-30.22h-4.14v22.37Z"/>
    <path d="M294.75,59.54c-.97-2.44-1.94-4.77-2.9-7-.96-2.23-1.96-4.43-3.01-6.61h-3.88c-1.05,2.18-2.05,4.38-3.01,6.61-.96,2.22-1.93,4.56-2.9,7-.97,2.44-1.97,5.02-2.99,7.74-1.02,2.72-2.11,5.68-3.27,8.87h4.4l2.75-7.72h13.69c.46,1.31.92,2.59,1.35,3.86.43,1.26.9,2.55,1.4,3.86h4.62c-1.16-3.2-2.25-6.16-3.27-8.87-1.02-2.72-2.01-5.3-2.99-7.74M281.17,64.94c.9-2.53,1.81-4.98,2.73-7.35.92-2.37,1.88-4.64,2.9-6.82.99,2.18,1.94,4.45,2.86,6.82.92,2.37,1.84,4.82,2.77,7.35h-11.25Z"/>
    <path d="M315.36,68.39c.9-1.45,1.85-2.91,2.86-4.38,1-1.47,2.03-2.92,3.07-4.36,1.04-1.44,2.06-2.81,3.05-4.1.99-1.29,1.92-2.47,2.81-3.53.89-1.06,1.67-1.97,2.33-2.73v-3.36h-20.71v3.62h15.52c-.78.9-1.65,1.95-2.59,3.14-.94,1.19-1.92,2.47-2.92,3.84-1,1.37-2.01,2.79-3.03,4.27-1.02,1.48-2,2.95-2.94,4.4-.94,1.45-1.83,2.88-2.66,4.27-.83,1.4-1.55,2.68-2.16,3.84v2.83h21.93v-3.62h-17c.73-1.31,1.54-2.69,2.44-4.14"/>
    <rect x="339.64" y="45.93" width="4.23" height="30.22"/>
    <path d="M366.02,66.03c0,2.59-.48,4.41-1.44,5.47-.96,1.06-2.49,1.59-4.58,1.59-1.45,0-2.67-.24-3.64-.72-.97-.48-1.77-.94-2.38-1.37l-1.66,3.36c.29.26.68.53,1.18.81.49.28,1.07.54,1.74.78.67.25,1.42.45,2.25.61.83.16,1.74.24,2.72.24,1.95,0,3.57-.27,4.86-.81,1.29-.54,2.33-1.28,3.1-2.22.77-.94,1.31-2.04,1.61-3.29.31-1.25.46-2.6.46-4.06v-20.49h-4.23v20.1Z"/>
    <path d="M403,67.28c-1.02-2.72-2.01-5.3-2.99-7.74-.97-2.44-1.94-4.77-2.9-7-.96-2.23-1.96-4.43-3.01-6.61h-3.88c-1.05,2.18-2.05,4.38-3.01,6.61-.96,2.22-1.93,4.56-2.9,7-.97,2.44-1.97,5.02-2.99,7.74-1.02,2.72-2.11,5.68-3.27,8.87h4.41l2.75-7.72h13.69c.46,1.31.92,2.59,1.35,3.86.43,1.26.9,2.55,1.4,3.86h4.62c-1.16-3.2-2.25-6.16-3.27-8.87M386.43,64.94c.9-2.53,1.81-4.98,2.73-7.35.92-2.37,1.88-4.64,2.9-6.82.99,2.18,1.94,4.45,2.86,6.82.92,2.37,1.84,4.82,2.77,7.35h-11.25Z"/>
    <rect x="211.66" y="36.77" width="64.87" height="2.76"/>
    <rect x="146.79" y="36.77" width="64.87" height="2.76"/>
    <rect x="276.53" y="36.77" width="64.87" height="2.76"/>
    <rect x="341.4" y="36.77" width="64.87" height="2.76"/>
    <g>
      <path class="cls-5" d="M114,79.87c1.41-2.67,2.62-5.45,3.58-8.35-34.01-7.2-68.76-4.73-103.57.14.94,2.86,2.14,5.59,3.52,8.22h96.47Z"/>
      <path class="cls-3" d="M113.1,27.47c-1.07-1.87-2.26-3.66-3.54-5.39C99.63,8.69,83.72,0,65.77,0,38.31,0,15.59,20.31,11.81,46.73c-.33,2.33-.51,4.72-.54,7.14,0,.22-.02.44-.02.66,0,3.09.27,6.12.77,9.07,21.84-1.19,43.57-3.8,64.44-9.28,12.1-8.89,26.94-12.84,39.88-20.08-.93-2.33-2-4.59-3.23-6.75"/>
      <path class="cls-1" d="M119.42,44.95c-.39-2.19-.92-4.34-1.56-6.44-.45-1.46-.97-2.88-1.53-4.29-12.93,7.24-27.76,11.19-39.86,20.07-20.87,5.5-42.6,8.11-64.46,9.29.47,2.76,1.13,5.45,1.99,8.06,34.81-4.87,69.55-7.34,103.57-.14,1.75-5.35,2.72-11.06,2.72-16.99,0-3.27-.32-6.46-.87-9.57"/>
      <path class="cls-2" d="M62.65,70.35c25.84,0,49.69,1.52,68.89,4.08-14.98-5.16-39.37-8.52-66.94-8.52s-49.48,3.03-64.6,7.75c18.03-2.09,39.53-3.31,62.65-3.31"/>
      <path class="cls-4" d="M132.19,29.88c1.91-.9,1.84-2.12,1.8-2.6-.11-1.34-14.42,2.35-18.4,3.28-.11.03-.99.49-1.09.54-12.1,4.73-23.55,6.62-24.08,6.7-.01,0-.02,0-.04,0-6.81,2.25-17.95,13.19-21.14,16.43-.63.64-1.37,1.17-2.2,1.53-6.76,2.93-11.75.69-11.75.69-.71-.34-1.4-.67-2.09-.99-25.31-11.68-38.51-6.29-40.11-5.55-.62.28-1.59.38-1.68.8-.06.28-.24.7-.3.98-.03.15.09.3.24.3,1.05.01,2.18-.18,2.18-.18,13.57-2.26,27.61,5.2,35.05,10.08,3.24,2.12,5.23,3.75,5.39,3.88,0,0,0,0,0,0,1.04,1.13.6,2.99,1.48,3.88,3.01,3.02,5.69,4.4,7.86,4.97,2.96.77,4.98.02,5.58-.26.17-.08.31-.22.4-.39,12.97-24.85,35.49-31.41,35.61-31.44,0,0,0,0,0,0,5.16-1.78,9.44-3.94,12.98-6.2.12-.07,14.36-6.34,14.29-6.46"/>
    </g>
  </g>
</svg>