<?xml version="1.0" encoding="UTF-8"?><svg id="Layer_2" xmlns="http://www.w3.org/2000/svg" viewBox="0 0 217.84 318.68"><defs><style>.cls-1{fill:#1f1f1f;}</style></defs><g id="Layer_1-2"><path class="cls-1" d="M28.81,291.4C11.06,273.21,1.45,248.69,0,217.84h40.16c1.16,19.21,7.13,35.22,17.9,48.02,10.76,12.81,27.35,19.21,49.77,19.21,21.24,0,38.05-4.8,50.42-14.41,12.37-9.6,18.55-24.01,18.55-43.22,0-17.17-5.39-30.99-16.15-41.47-10.77-10.48-25.32-15.72-43.65-15.72h-27.94v-32.3h26.63c16.29,0,29.47-5.31,39.51-15.93,10.04-10.62,15.06-23.79,15.06-39.51s-5.02-27.07-15.06-35.8c-10.04-8.73-24.38-13.1-43-13.1-21.83,0-38.27,6.19-49.33,18.55-11.06,12.37-17.03,27.28-17.9,44.75H5.24c.29-16.59,4.37-32.23,12.22-46.93,7.86-14.69,19.86-26.7,36.02-36.02C69.63,4.66,89.78,0,113.94,0c30.26,0,53.91,7.13,70.94,21.39,17.03,14.26,25.54,33.33,25.54,57.19,0,17.76-4.8,33.11-14.41,46.06-9.6,12.95-22.12,22.05-37.54,27.28,15.72,3.49,29.54,11.72,41.47,24.66,11.93,12.95,17.9,30.2,17.9,51.73,0,16.88-4.3,32.16-12.88,45.84-8.59,13.68-20.95,24.52-37.11,32.52-16.15,8-35.29,12.01-57.41,12.01-36.67,0-63.89-9.09-81.63-27.29Z"/></g></svg>